%TF.GenerationSoftware,KiCad,Pcbnew,7.0.2-0*%
%TF.CreationDate,2023-12-18T16:01:05-05:00*%
%TF.ProjectId,AirCar-Proto,41697243-6172-42d5-9072-6f746f2e6b69,rev?*%
%TF.SameCoordinates,Original*%
%TF.FileFunction,Soldermask,Top*%
%TF.FilePolarity,Negative*%
%FSLAX46Y46*%
G04 Gerber Fmt 4.6, Leading zero omitted, Abs format (unit mm)*
G04 Created by KiCad (PCBNEW 7.0.2-0) date 2023-12-18 16:01:05*
%MOMM*%
%LPD*%
G01*
G04 APERTURE LIST*
G04 Aperture macros list*
%AMRoundRect*
0 Rectangle with rounded corners*
0 $1 Rounding radius*
0 $2 $3 $4 $5 $6 $7 $8 $9 X,Y pos of 4 corners*
0 Add a 4 corners polygon primitive as box body*
4,1,4,$2,$3,$4,$5,$6,$7,$8,$9,$2,$3,0*
0 Add four circle primitives for the rounded corners*
1,1,$1+$1,$2,$3*
1,1,$1+$1,$4,$5*
1,1,$1+$1,$6,$7*
1,1,$1+$1,$8,$9*
0 Add four rect primitives between the rounded corners*
20,1,$1+$1,$2,$3,$4,$5,0*
20,1,$1+$1,$4,$5,$6,$7,0*
20,1,$1+$1,$6,$7,$8,$9,0*
20,1,$1+$1,$8,$9,$2,$3,0*%
G04 Aperture macros list end*
%ADD10C,3.200000*%
%ADD11RoundRect,0.250000X0.300000X-0.300000X0.300000X0.300000X-0.300000X0.300000X-0.300000X-0.300000X0*%
%ADD12RoundRect,0.200000X-0.200000X-0.275000X0.200000X-0.275000X0.200000X0.275000X-0.200000X0.275000X0*%
%ADD13R,1.700000X1.700000*%
%ADD14O,1.700000X1.700000*%
%ADD15O,1.800000X1.800000*%
%ADD16O,1.500000X1.500000*%
%ADD17R,1.700000X3.500000*%
%ADD18R,3.500000X1.700000*%
%ADD19R,0.254000X0.812800*%
%ADD20R,0.812800X0.254000*%
%ADD21R,1.092200X1.574800*%
%ADD22RoundRect,0.225000X0.225000X0.250000X-0.225000X0.250000X-0.225000X-0.250000X0.225000X-0.250000X0*%
%ADD23R,1.600000X1.600000*%
%ADD24C,1.600000*%
%ADD25R,1.800000X1.800000*%
%ADD26C,1.800000*%
%ADD27R,0.630000X0.450000*%
%ADD28R,1.700000X2.600000*%
%ADD29R,1.498600X1.498600*%
%ADD30C,1.498600*%
%ADD31R,2.108200X2.108200*%
%ADD32C,2.108200*%
%ADD33R,2.600000X2.600000*%
%ADD34C,2.600000*%
G04 APERTURE END LIST*
D10*
%TO.C,H3*%
X164020000Y-105580000D03*
%TD*%
%TO.C,H4*%
X95440000Y-105580000D03*
%TD*%
D11*
%TO.C,D1*%
X110380000Y-80810000D03*
X110380000Y-78010000D03*
%TD*%
D12*
%TO.C,R1*%
X105525000Y-68010000D03*
X107175000Y-68010000D03*
%TD*%
D13*
%TO.C,J1*%
X100380000Y-94780000D03*
D14*
X100380000Y-92240000D03*
X100380000Y-89700000D03*
X100380000Y-87160000D03*
X100380000Y-84620000D03*
%TD*%
D15*
%TO.C,U1*%
X166300000Y-82495000D03*
D16*
X163270000Y-82795000D03*
X163270000Y-87645000D03*
D15*
X166300000Y-87945000D03*
D14*
X166430000Y-76330000D03*
D17*
X166430000Y-75430000D03*
D14*
X163890000Y-76330000D03*
D17*
X163890000Y-75430000D03*
D13*
X161350000Y-76330000D03*
D17*
X161350000Y-75430000D03*
D14*
X158810000Y-76330000D03*
D17*
X158810000Y-75430000D03*
D14*
X156270000Y-76330000D03*
D17*
X156270000Y-75430000D03*
D14*
X153730000Y-76330000D03*
D17*
X153730000Y-75430000D03*
D14*
X151190000Y-76330000D03*
D17*
X151190000Y-75430000D03*
D13*
X148650000Y-76330000D03*
D17*
X148650000Y-75430000D03*
D14*
X146110000Y-76330000D03*
D17*
X146110000Y-75430000D03*
D14*
X143570000Y-76330000D03*
D17*
X143570000Y-75430000D03*
D14*
X141030000Y-76330000D03*
D17*
X141030000Y-75430000D03*
D14*
X138490000Y-76330000D03*
D17*
X138490000Y-75430000D03*
D13*
X135950000Y-76330000D03*
D17*
X135950000Y-75430000D03*
D14*
X133410000Y-76330000D03*
D17*
X133410000Y-75430000D03*
D14*
X130870000Y-76330000D03*
D17*
X130870000Y-75430000D03*
D14*
X128330000Y-76330000D03*
D17*
X128330000Y-75430000D03*
D14*
X125790000Y-76330000D03*
D17*
X125790000Y-75430000D03*
D13*
X123250000Y-76330000D03*
D17*
X123250000Y-75430000D03*
D14*
X120710000Y-76330000D03*
D17*
X120710000Y-75430000D03*
D14*
X118170000Y-76330000D03*
D17*
X118170000Y-75430000D03*
D14*
X118170000Y-94110000D03*
D17*
X118170000Y-95010000D03*
D14*
X120710000Y-94110000D03*
D17*
X120710000Y-95010000D03*
D13*
X123250000Y-94110000D03*
D17*
X123250000Y-95010000D03*
D14*
X125790000Y-94110000D03*
D17*
X125790000Y-95010000D03*
D14*
X128330000Y-94110000D03*
D17*
X128330000Y-95010000D03*
D14*
X130870000Y-94110000D03*
D17*
X130870000Y-95010000D03*
D14*
X133410000Y-94110000D03*
D17*
X133410000Y-95010000D03*
D13*
X135950000Y-94110000D03*
D17*
X135950000Y-95010000D03*
D14*
X138490000Y-94110000D03*
D17*
X138490000Y-95010000D03*
D14*
X141030000Y-94110000D03*
D17*
X141030000Y-95010000D03*
D14*
X143570000Y-94110000D03*
D17*
X143570000Y-95010000D03*
D14*
X146110000Y-94110000D03*
D17*
X146110000Y-95010000D03*
D13*
X148650000Y-94110000D03*
D17*
X148650000Y-95010000D03*
D14*
X151190000Y-94110000D03*
D17*
X151190000Y-95010000D03*
D14*
X153730000Y-94110000D03*
D17*
X153730000Y-95010000D03*
D14*
X156270000Y-94110000D03*
D17*
X156270000Y-95010000D03*
D14*
X158810000Y-94110000D03*
D17*
X158810000Y-95010000D03*
D13*
X161350000Y-94110000D03*
D17*
X161350000Y-95010000D03*
D14*
X163890000Y-94110000D03*
D17*
X163890000Y-95010000D03*
D14*
X166430000Y-94110000D03*
D17*
X166430000Y-95010000D03*
D14*
X118400000Y-82680000D03*
D18*
X117500000Y-82680000D03*
D13*
X118400000Y-85220000D03*
D18*
X117500000Y-85220000D03*
D14*
X118400000Y-87760000D03*
D18*
X117500000Y-87760000D03*
%TD*%
D10*
%TO.C,H1*%
X95440000Y-57320000D03*
%TD*%
D19*
%TO.C,U3*%
X108532200Y-86312200D03*
D20*
X107588400Y-86759999D03*
X107588400Y-87260001D03*
X107588400Y-87760000D03*
X107588400Y-88259999D03*
X107588400Y-88760001D03*
D19*
X108532200Y-89207800D03*
X109032200Y-89207800D03*
D20*
X109976000Y-88760001D03*
X109976000Y-88259999D03*
X109976000Y-87760000D03*
X109976000Y-87260001D03*
X109976000Y-86759999D03*
D19*
X109032200Y-86312200D03*
D21*
X108782200Y-87760000D03*
%TD*%
D22*
%TO.C,C2*%
X106180000Y-92410000D03*
X104630000Y-92410000D03*
%TD*%
D10*
%TO.C,H2*%
X164020000Y-57320000D03*
%TD*%
D23*
%TO.C,C1*%
X99845000Y-73195000D03*
D24*
X97345000Y-73195000D03*
%TD*%
D25*
%TO.C,D2*%
X105600000Y-63675000D03*
D26*
X105600000Y-61135000D03*
%TD*%
D13*
%TO.C,J3*%
X114770000Y-103460000D03*
D14*
X112230000Y-103460000D03*
X109690000Y-103460000D03*
X107150000Y-103460000D03*
X104610000Y-103460000D03*
X102070000Y-103460000D03*
%TD*%
D27*
%TO.C,U2*%
X113962800Y-60494960D03*
X113962800Y-61444960D03*
X113962800Y-62394960D03*
X116642800Y-62394960D03*
X116642800Y-61444960D03*
X116642800Y-60494960D03*
D28*
X115302800Y-61444960D03*
%TD*%
D29*
%TO.C,Reset1*%
X146880000Y-102460000D03*
D30*
X153380002Y-102460000D03*
X146880000Y-106960001D03*
X153380002Y-106960001D03*
%TD*%
D31*
%TO.C,SW2*%
X141160000Y-66464000D03*
D32*
X141160000Y-61765000D03*
X141160000Y-57066000D03*
%TD*%
D29*
%TO.C,USER1*%
X128280001Y-102460000D03*
D30*
X134780003Y-102460000D03*
X128280001Y-106960001D03*
X134780003Y-106960001D03*
%TD*%
D33*
%TO.C,J4*%
X127305000Y-67130000D03*
D34*
X127305000Y-61130000D03*
X122605000Y-64130000D03*
%TD*%
M02*
