M48
; DRILL file {KiCad 7.0.2-0} date 2023 December 18, Monday 16:01:08
; FORMAT={-:-/ absolute / inch / decimal}
; #@! TF.CreationDate,2023-12-18T16:01:08-05:00
; #@! TF.GenerationSoftware,Kicad,Pcbnew,7.0.2-0
; #@! TF.FileFunction,Plated,1,2,PTH
FMAT,2
INCH
; #@! TA.AperFunction,Plated,PTH,ViaDrill
T1C0.0118
; #@! TA.AperFunction,Plated,PTH,ComponentDrill
T2C0.0315
; #@! TA.AperFunction,Plated,PTH,ComponentDrill
T3C0.0354
; #@! TA.AperFunction,Plated,PTH,ComponentDrill
T4C0.0390
; #@! TA.AperFunction,Plated,PTH,ComponentDrill
T5C0.0394
; #@! TA.AperFunction,Plated,PTH,ComponentDrill
T6C0.0402
; #@! TA.AperFunction,Plated,PTH,ComponentDrill
T7C0.0630
; #@! TA.AperFunction,Plated,PTH,ComponentDrill
T8C0.0630
%
G90
G05
T1
X4.0976Y-3.052
X4.0976Y-3.0965
X4.1193Y-3.6382
X4.1488Y-3.5496
X4.1783Y-3.4807
X4.1882Y-3.3134
X4.1882Y-3.3823
X4.2012Y-3.2339
X4.2205Y-3.7701
X4.2472Y-3.5569
X4.2571Y-2.6736
X4.3354Y-3.3606
X4.3862Y-3.5024
X4.426Y-3.2878
X4.437Y-3.6244
X4.5425Y-2.398
X4.5425Y-2.4472
X4.7098Y-3.648
X4.7394Y-3.4217
X4.7394Y-3.5201
X6.2846Y-3.087
X6.2846Y-3.5106
X6.3142Y-3.5693
X6.324Y-3.1362
T2
X3.8325Y-2.8817
X3.9309Y-2.8817
T3
X4.1575Y-2.4069
X4.1575Y-2.5069
T4
X5.0504Y-4.0339
X5.0504Y-4.211
X5.3063Y-4.0339
X5.3063Y-4.211
X5.7827Y-4.0339
X5.7827Y-4.211
X6.0386Y-4.0339
X6.0386Y-4.211
T5
X3.952Y-3.3315
X3.952Y-3.4315
X3.952Y-3.5315
X3.952Y-3.6315
X3.952Y-3.7315
X4.0185Y-4.0732
X4.1185Y-4.0732
X4.2185Y-4.0732
X4.3185Y-4.0732
X4.4185Y-4.0732
X4.5185Y-4.0732
T6
X4.6524Y-3.0051
X4.6524Y-3.7051
X4.6614Y-3.2551
X4.6614Y-3.3551
X4.6614Y-3.4551
X4.7524Y-3.0051
X4.7524Y-3.7051
X4.8524Y-3.0051
X4.8524Y-3.7051
X4.9524Y-3.0051
X4.9524Y-3.7051
X5.0524Y-3.0051
X5.0524Y-3.7051
X5.1524Y-3.0051
X5.1524Y-3.7051
X5.2524Y-3.0051
X5.2524Y-3.7051
X5.3524Y-3.0051
X5.3524Y-3.7051
X5.4524Y-3.0051
X5.4524Y-3.7051
X5.5524Y-3.0051
X5.5524Y-3.7051
X5.6524Y-3.0051
X5.6524Y-3.7051
X5.7524Y-3.0051
X5.7524Y-3.7051
X5.8524Y-3.0051
X5.8524Y-3.7051
X5.9524Y-3.0051
X5.9524Y-3.7051
X6.0524Y-3.0051
X6.0524Y-3.7051
X6.1524Y-3.0051
X6.1524Y-3.7051
X6.2524Y-3.0051
X6.2524Y-3.7051
X6.3524Y-3.0051
X6.3524Y-3.7051
X6.4524Y-3.0051
X6.4524Y-3.7051
X6.5524Y-3.0051
X6.5524Y-3.7051
T7
X4.827Y-2.5248
X5.012Y-2.4067
X5.012Y-2.6429
T8
X5.5575Y-2.2467
X5.5575Y-2.4317
X5.5575Y-2.6167
T0
M30
