%TF.GenerationSoftware,KiCad,Pcbnew,7.0.2-0*%
%TF.CreationDate,2023-12-18T16:01:05-05:00*%
%TF.ProjectId,AirCar-Proto,41697243-6172-42d5-9072-6f746f2e6b69,rev?*%
%TF.SameCoordinates,Original*%
%TF.FileFunction,Copper,L1,Top*%
%TF.FilePolarity,Positive*%
%FSLAX46Y46*%
G04 Gerber Fmt 4.6, Leading zero omitted, Abs format (unit mm)*
G04 Created by KiCad (PCBNEW 7.0.2-0) date 2023-12-18 16:01:05*
%MOMM*%
%LPD*%
G01*
G04 APERTURE LIST*
G04 Aperture macros list*
%AMRoundRect*
0 Rectangle with rounded corners*
0 $1 Rounding radius*
0 $2 $3 $4 $5 $6 $7 $8 $9 X,Y pos of 4 corners*
0 Add a 4 corners polygon primitive as box body*
4,1,4,$2,$3,$4,$5,$6,$7,$8,$9,$2,$3,0*
0 Add four circle primitives for the rounded corners*
1,1,$1+$1,$2,$3*
1,1,$1+$1,$4,$5*
1,1,$1+$1,$6,$7*
1,1,$1+$1,$8,$9*
0 Add four rect primitives between the rounded corners*
20,1,$1+$1,$2,$3,$4,$5,0*
20,1,$1+$1,$4,$5,$6,$7,0*
20,1,$1+$1,$6,$7,$8,$9,0*
20,1,$1+$1,$8,$9,$2,$3,0*%
G04 Aperture macros list end*
%TA.AperFunction,SMDPad,CuDef*%
%ADD10RoundRect,0.250000X0.300000X-0.300000X0.300000X0.300000X-0.300000X0.300000X-0.300000X-0.300000X0*%
%TD*%
%TA.AperFunction,SMDPad,CuDef*%
%ADD11RoundRect,0.200000X-0.200000X-0.275000X0.200000X-0.275000X0.200000X0.275000X-0.200000X0.275000X0*%
%TD*%
%TA.AperFunction,ComponentPad*%
%ADD12R,1.700000X1.700000*%
%TD*%
%TA.AperFunction,ComponentPad*%
%ADD13O,1.700000X1.700000*%
%TD*%
%TA.AperFunction,SMDPad,CuDef*%
%ADD14R,1.700000X3.500000*%
%TD*%
%TA.AperFunction,SMDPad,CuDef*%
%ADD15R,3.500000X1.700000*%
%TD*%
%TA.AperFunction,SMDPad,CuDef*%
%ADD16R,0.254000X0.812800*%
%TD*%
%TA.AperFunction,SMDPad,CuDef*%
%ADD17R,0.812800X0.254000*%
%TD*%
%TA.AperFunction,SMDPad,CuDef*%
%ADD18R,1.092200X1.574800*%
%TD*%
%TA.AperFunction,SMDPad,CuDef*%
%ADD19RoundRect,0.225000X0.225000X0.250000X-0.225000X0.250000X-0.225000X-0.250000X0.225000X-0.250000X0*%
%TD*%
%TA.AperFunction,ComponentPad*%
%ADD20R,1.600000X1.600000*%
%TD*%
%TA.AperFunction,ComponentPad*%
%ADD21C,1.600000*%
%TD*%
%TA.AperFunction,ComponentPad*%
%ADD22R,1.800000X1.800000*%
%TD*%
%TA.AperFunction,ComponentPad*%
%ADD23C,1.800000*%
%TD*%
%TA.AperFunction,SMDPad,CuDef*%
%ADD24R,0.630000X0.450000*%
%TD*%
%TA.AperFunction,SMDPad,CuDef*%
%ADD25R,1.700000X2.600000*%
%TD*%
%TA.AperFunction,ComponentPad*%
%ADD26R,1.498600X1.498600*%
%TD*%
%TA.AperFunction,ComponentPad*%
%ADD27C,1.498600*%
%TD*%
%TA.AperFunction,ComponentPad*%
%ADD28R,2.108200X2.108200*%
%TD*%
%TA.AperFunction,ComponentPad*%
%ADD29C,2.108200*%
%TD*%
%TA.AperFunction,ComponentPad*%
%ADD30R,2.600000X2.600000*%
%TD*%
%TA.AperFunction,ComponentPad*%
%ADD31C,2.600000*%
%TD*%
%TA.AperFunction,ViaPad*%
%ADD32C,0.500000*%
%TD*%
%TA.AperFunction,Conductor*%
%ADD33C,0.254000*%
%TD*%
%TA.AperFunction,Conductor*%
%ADD34C,0.127000*%
%TD*%
%TA.AperFunction,Conductor*%
%ADD35C,2.000000*%
%TD*%
%TA.AperFunction,Conductor*%
%ADD36C,0.508000*%
%TD*%
G04 APERTURE END LIST*
D10*
%TO.P,D1,1,K*%
%TO.N,/VSYS*%
X110380000Y-80810000D03*
%TO.P,D1,2,A*%
%TO.N,/V5p0*%
X110380000Y-78010000D03*
%TD*%
D11*
%TO.P,R1,1*%
%TO.N,Net-(D2-K)*%
X105525000Y-68010000D03*
%TO.P,R1,2*%
%TO.N,GND*%
X107175000Y-68010000D03*
%TD*%
D12*
%TO.P,J1,1,Pin_1*%
%TO.N,GND*%
X100380000Y-94780000D03*
D13*
%TO.P,J1,2,Pin_2*%
%TO.N,unconnected-(J1-Pin_2-Pad2)*%
X100380000Y-92240000D03*
%TO.P,J1,3,Pin_3*%
%TO.N,/Lead*%
X100380000Y-89700000D03*
%TO.P,J1,4,Pin_4*%
%TO.N,/Venc*%
X100380000Y-87160000D03*
%TO.P,J1,5,Pin_5*%
%TO.N,/Lag*%
X100380000Y-84620000D03*
%TD*%
%TO.P,U1,1,GPIO0*%
%TO.N,/PicoTx*%
X166430000Y-76330000D03*
D14*
X166430000Y-75430000D03*
D13*
%TO.P,U1,2,GPIO1*%
%TO.N,/PicoRx*%
X163890000Y-76330000D03*
D14*
X163890000Y-75430000D03*
D12*
%TO.P,U1,3,GND*%
%TO.N,GND*%
X161350000Y-76330000D03*
D14*
X161350000Y-75430000D03*
D13*
%TO.P,U1,4,GPIO2*%
%TO.N,unconnected-(U1-GPIO2-Pad4)*%
X158810000Y-76330000D03*
D14*
X158810000Y-75430000D03*
D13*
%TO.P,U1,5,GPIO3*%
%TO.N,unconnected-(U1-GPIO3-Pad5)*%
X156270000Y-76330000D03*
D14*
X156270000Y-75430000D03*
D13*
%TO.P,U1,6,GPIO4*%
%TO.N,unconnected-(U1-GPIO4-Pad6)*%
X153730000Y-76330000D03*
D14*
X153730000Y-75430000D03*
D13*
%TO.P,U1,7,GPIO5*%
%TO.N,unconnected-(U1-GPIO5-Pad7)*%
X151190000Y-76330000D03*
D14*
X151190000Y-75430000D03*
D12*
%TO.P,U1,8,GND*%
%TO.N,GND*%
X148650000Y-76330000D03*
D14*
X148650000Y-75430000D03*
D13*
%TO.P,U1,9,GPIO6*%
%TO.N,unconnected-(U1-GPIO6-Pad9)*%
X146110000Y-76330000D03*
D14*
X146110000Y-75430000D03*
D13*
%TO.P,U1,10,GPIO7*%
%TO.N,unconnected-(U1-GPIO7-Pad10)*%
X143570000Y-76330000D03*
D14*
X143570000Y-75430000D03*
D13*
%TO.P,U1,11,GPIO8*%
%TO.N,unconnected-(U1-GPIO8-Pad11)*%
X141030000Y-76330000D03*
D14*
X141030000Y-75430000D03*
D13*
%TO.P,U1,12,GPIO9*%
%TO.N,unconnected-(U1-GPIO9-Pad12)*%
X138490000Y-76330000D03*
D14*
X138490000Y-75430000D03*
D12*
%TO.P,U1,13,GND*%
%TO.N,GND*%
X135950000Y-76330000D03*
D14*
X135950000Y-75430000D03*
D13*
%TO.P,U1,14,GPIO10*%
%TO.N,unconnected-(U1-GPIO10-Pad14)*%
X133410000Y-76330000D03*
D14*
X133410000Y-75430000D03*
D13*
%TO.P,U1,15,GPIO11*%
%TO.N,unconnected-(U1-GPIO11-Pad15)*%
X130870000Y-76330000D03*
D14*
X130870000Y-75430000D03*
D13*
%TO.P,U1,16,GPIO12*%
%TO.N,unconnected-(U1-GPIO12-Pad16)*%
X128330000Y-76330000D03*
D14*
X128330000Y-75430000D03*
D13*
%TO.P,U1,17,GPIO13*%
%TO.N,unconnected-(U1-GPIO13-Pad17)*%
X125790000Y-76330000D03*
D14*
X125790000Y-75430000D03*
D12*
%TO.P,U1,18,GND*%
%TO.N,GND*%
X123250000Y-76330000D03*
D14*
X123250000Y-75430000D03*
D13*
%TO.P,U1,19,GPIO14*%
%TO.N,unconnected-(U1-GPIO14-Pad19)*%
X120710000Y-76330000D03*
D14*
X120710000Y-75430000D03*
D13*
%TO.P,U1,20,GPIO15*%
%TO.N,unconnected-(U1-GPIO15-Pad20)*%
X118170000Y-76330000D03*
D14*
X118170000Y-75430000D03*
D13*
%TO.P,U1,21,GPIO16*%
%TO.N,/Lag_3P3*%
X118170000Y-94110000D03*
D14*
X118170000Y-95010000D03*
D13*
%TO.P,U1,22,GPIO17*%
%TO.N,/Lead_3P3*%
X120710000Y-94110000D03*
D14*
X120710000Y-95010000D03*
D12*
%TO.P,U1,23,GND*%
%TO.N,GND*%
X123250000Y-94110000D03*
D14*
X123250000Y-95010000D03*
D13*
%TO.P,U1,24,GPIO18*%
%TO.N,unconnected-(U1-GPIO18-Pad24)*%
X125790000Y-94110000D03*
D14*
X125790000Y-95010000D03*
D13*
%TO.P,U1,25,GPIO19*%
%TO.N,unconnected-(U1-GPIO19-Pad25)*%
X128330000Y-94110000D03*
D14*
X128330000Y-95010000D03*
D13*
%TO.P,U1,26,GPIO20*%
%TO.N,Net-(U1-GPIO20)*%
X130870000Y-94110000D03*
D14*
X130870000Y-95010000D03*
D13*
%TO.P,U1,27,GPIO21*%
%TO.N,unconnected-(U1-GPIO21-Pad27)*%
X133410000Y-94110000D03*
D14*
X133410000Y-95010000D03*
D12*
%TO.P,U1,28,GND*%
%TO.N,GND*%
X135950000Y-94110000D03*
D14*
X135950000Y-95010000D03*
D13*
%TO.P,U1,29,GPIO22*%
%TO.N,unconnected-(U1-GPIO22-Pad29)*%
X138490000Y-94110000D03*
D14*
X138490000Y-95010000D03*
D13*
%TO.P,U1,30,RUN*%
%TO.N,Net-(U1-RUN)*%
X141030000Y-94110000D03*
D14*
X141030000Y-95010000D03*
D13*
%TO.P,U1,31,GPIO26_ADC0*%
%TO.N,unconnected-(U1-GPIO26_ADC0-Pad31)*%
X143570000Y-94110000D03*
D14*
X143570000Y-95010000D03*
D13*
%TO.P,U1,32,GPIO27_ADC1*%
%TO.N,unconnected-(U1-GPIO27_ADC1-Pad32)*%
X146110000Y-94110000D03*
D14*
X146110000Y-95010000D03*
D12*
%TO.P,U1,33,AGND*%
%TO.N,GND*%
X148650000Y-94110000D03*
D14*
X148650000Y-95010000D03*
D13*
%TO.P,U1,34,GPIO28_ADC2*%
%TO.N,unconnected-(U1-GPIO28_ADC2-Pad34)*%
X151190000Y-94110000D03*
D14*
X151190000Y-95010000D03*
D13*
%TO.P,U1,35,ADC_VREF*%
%TO.N,unconnected-(U1-ADC_VREF-Pad35)*%
X153730000Y-94110000D03*
D14*
X153730000Y-95010000D03*
D13*
%TO.P,U1,36,3V3*%
%TO.N,/V3P3*%
X156270000Y-94110000D03*
D14*
X156270000Y-95010000D03*
D13*
%TO.P,U1,37,3V3_EN*%
%TO.N,unconnected-(U1-3V3_EN-Pad37)*%
X158810000Y-94110000D03*
D14*
X158810000Y-95010000D03*
D12*
%TO.P,U1,38,GND*%
%TO.N,GND*%
X161350000Y-94110000D03*
D14*
X161350000Y-95010000D03*
D13*
%TO.P,U1,39,VSYS*%
%TO.N,/VSYS*%
X163890000Y-94110000D03*
D14*
X163890000Y-95010000D03*
D13*
%TO.P,U1,40,VBUS*%
%TO.N,unconnected-(U1-VBUS-Pad40)*%
X166430000Y-94110000D03*
D14*
X166430000Y-95010000D03*
D13*
%TO.P,U1,41,SWCLK*%
%TO.N,Net-(J3-Pin_3)*%
X118400000Y-82680000D03*
D15*
X117500000Y-82680000D03*
D12*
%TO.P,U1,42,GND*%
%TO.N,GND*%
X118400000Y-85220000D03*
D15*
X117500000Y-85220000D03*
D13*
%TO.P,U1,43,SWDIO*%
%TO.N,Net-(J3-Pin_1)*%
X118400000Y-87760000D03*
D15*
X117500000Y-87760000D03*
%TD*%
D16*
%TO.P,U3,1,VA*%
%TO.N,/Venc*%
X108532200Y-86312200D03*
D17*
%TO.P,U3,2,A1*%
%TO.N,/Lag*%
X107588400Y-86759999D03*
%TO.P,U3,3,A2*%
%TO.N,unconnected-(U3-A2-Pad3)*%
X107588400Y-87260001D03*
%TO.P,U3,4,A3*%
%TO.N,/Lead*%
X107588400Y-87760000D03*
%TO.P,U3,5,A4*%
%TO.N,unconnected-(U3-A4-Pad5)*%
X107588400Y-88259999D03*
%TO.P,U3,6*%
%TO.N,N/C*%
X107588400Y-88760001D03*
D16*
%TO.P,U3,7,GND*%
%TO.N,GND*%
X108532200Y-89207800D03*
%TO.P,U3,8,OE*%
%TO.N,/Venc*%
X109032200Y-89207800D03*
D17*
%TO.P,U3,9*%
%TO.N,unconnected-(U3-Pad9)*%
X109976000Y-88760001D03*
%TO.P,U3,10,B4*%
%TO.N,unconnected-(U3-B4-Pad10)*%
X109976000Y-88259999D03*
%TO.P,U3,11,B3*%
%TO.N,/Lead_3P3*%
X109976000Y-87760000D03*
%TO.P,U3,12,B2*%
%TO.N,unconnected-(U3-B2-Pad12)*%
X109976000Y-87260001D03*
%TO.P,U3,13,B1*%
%TO.N,/Lag_3P3*%
X109976000Y-86759999D03*
D16*
%TO.P,U3,14,VB*%
%TO.N,/V3P3*%
X109032200Y-86312200D03*
D18*
%TO.P,U3,15,GND*%
%TO.N,GND*%
X108782200Y-87760000D03*
%TD*%
D19*
%TO.P,C2,1*%
%TO.N,/Venc*%
X106180000Y-92410000D03*
%TO.P,C2,2*%
%TO.N,GND*%
X104630000Y-92410000D03*
%TD*%
D20*
%TO.P,C1,1*%
%TO.N,/V5p0*%
X99845000Y-73195000D03*
D21*
%TO.P,C1,2*%
%TO.N,GND*%
X97345000Y-73195000D03*
%TD*%
D22*
%TO.P,D2,1,K*%
%TO.N,Net-(D2-K)*%
X105600000Y-63675000D03*
D23*
%TO.P,D2,2,A*%
%TO.N,/V5p0*%
X105600000Y-61135000D03*
%TD*%
D12*
%TO.P,J3,1,Pin_1*%
%TO.N,Net-(J3-Pin_1)*%
X114770000Y-103460000D03*
D13*
%TO.P,J3,2,Pin_2*%
%TO.N,GND*%
X112230000Y-103460000D03*
%TO.P,J3,3,Pin_3*%
%TO.N,Net-(J3-Pin_3)*%
X109690000Y-103460000D03*
%TO.P,J3,4,Pin_4*%
%TO.N,/PicoTx*%
X107150000Y-103460000D03*
%TO.P,J3,5,Pin_5*%
%TO.N,unconnected-(J3-Pin_5-Pad5)*%
X104610000Y-103460000D03*
%TO.P,J3,6,Pin_6*%
%TO.N,/PicoRx*%
X102070000Y-103460000D03*
%TD*%
D24*
%TO.P,U2,1,GND*%
%TO.N,GND*%
X113962800Y-60494960D03*
%TO.P,U2,2,ADJ/sense*%
%TO.N,/V5p0*%
X113962800Y-61444960D03*
%TO.P,U2,3,VOUT*%
X113962800Y-62394960D03*
%TO.P,U2,4,VIN*%
%TO.N,/V9P0_SW*%
X116642800Y-62394960D03*
%TO.P,U2,5,NC*%
%TO.N,unconnected-(U2-NC-Pad5)*%
X116642800Y-61444960D03*
%TO.P,U2,6,EN*%
%TO.N,/V9P0_SW*%
X116642800Y-60494960D03*
D25*
%TO.P,U2,7,GND*%
%TO.N,GND*%
X115302800Y-61444960D03*
%TD*%
D26*
%TO.P,Reset1,1,1*%
%TO.N,Net-(U1-RUN)*%
X146880000Y-102460000D03*
D27*
%TO.P,Reset1,2,2*%
X153380002Y-102460000D03*
%TO.P,Reset1,3,3*%
%TO.N,GND*%
X146880000Y-106960001D03*
%TO.P,Reset1,4,4*%
X153380002Y-106960001D03*
%TD*%
D28*
%TO.P,SW2,1,A*%
%TO.N,/V9P0_SW*%
X141160000Y-66464000D03*
D29*
%TO.P,SW2,2,B*%
%TO.N,/V9P0*%
X141160000Y-61765000D03*
%TO.P,SW2,3,C*%
%TO.N,unconnected-(SW2-C-Pad3)*%
X141160000Y-57066000D03*
%TD*%
D26*
%TO.P,USER1,1,1*%
%TO.N,Net-(U1-GPIO20)*%
X128280001Y-102460000D03*
D27*
%TO.P,USER1,2,2*%
X134780003Y-102460000D03*
%TO.P,USER1,3,3*%
%TO.N,GND*%
X128280001Y-106960001D03*
%TO.P,USER1,4,4*%
X134780003Y-106960001D03*
%TD*%
D30*
%TO.P,J4,1*%
%TO.N,/V9P0*%
X127305000Y-67130000D03*
D31*
%TO.P,J4,2*%
%TO.N,GND*%
X127305000Y-61130000D03*
%TO.P,J4,3*%
X122605000Y-64130000D03*
%TD*%
D32*
%TO.N,/PicoTx*%
X160630000Y-79660000D03*
X107200000Y-95760000D03*
X160380000Y-90660000D03*
%TO.N,/PicoRx*%
X159630000Y-89170000D03*
X159630000Y-78410000D03*
%TO.N,/Lag*%
X106380000Y-85910000D03*
%TO.N,/Lead*%
X106130000Y-88410000D03*
%TO.N,GND*%
X104630000Y-92410000D03*
X115380000Y-62160000D03*
X107880000Y-90346500D03*
X108130000Y-67910000D03*
X115380000Y-60910000D03*
%TO.N,/V5p0*%
X104080000Y-77520000D03*
X104080000Y-78650000D03*
%TO.N,/Venc*%
X105379998Y-90160000D03*
X106380000Y-84160000D03*
%TO.N,/V3P3*%
X112420000Y-83510000D03*
X106710000Y-82140000D03*
X112700000Y-92060000D03*
%TO.N,/Lag_3P3*%
X119630000Y-92660000D03*
X120380000Y-86910000D03*
X110120000Y-85360000D03*
%TO.N,/Lead_3P3*%
X111410000Y-88960000D03*
X120380000Y-89410000D03*
%TD*%
D33*
%TO.N,/PicoTx*%
X159630000Y-91410000D02*
X111550000Y-91410000D01*
X160380000Y-90660000D02*
X159630000Y-91410000D01*
X163100000Y-79660000D02*
X166430000Y-76330000D01*
X160630000Y-79660000D02*
X163100000Y-79660000D01*
X111550000Y-91410000D02*
X107200000Y-95760000D01*
%TO.N,/PicoRx*%
X102070000Y-103460000D02*
X102070000Y-99470000D01*
X110320000Y-91220000D02*
X111230000Y-90310000D01*
X111230000Y-90310000D02*
X158490000Y-90310000D01*
X161810000Y-78410000D02*
X159630000Y-78410000D01*
X158490000Y-90310000D02*
X159630000Y-89170000D01*
X163890000Y-76330000D02*
X161810000Y-78410000D01*
X102070000Y-99470000D02*
X110320000Y-91220000D01*
%TO.N,Net-(U1-RUN)*%
X146930000Y-102460000D02*
X141030000Y-96560000D01*
X141030000Y-96560000D02*
X141030000Y-94110000D01*
X153380002Y-102460000D02*
X146930000Y-102460000D01*
D34*
%TO.N,/Lag*%
X106380000Y-85910000D02*
X106380000Y-86259999D01*
D33*
X104479999Y-86759999D02*
X102340000Y-84620000D01*
X107588400Y-86759999D02*
X105880000Y-86759999D01*
X105880000Y-86759999D02*
X104479999Y-86759999D01*
D34*
X106380000Y-86259999D02*
X105880000Y-86759999D01*
D33*
X102340000Y-84620000D02*
X100380000Y-84620000D01*
%TO.N,/Lead*%
X103530000Y-87760000D02*
X101590000Y-89700000D01*
D34*
X106130000Y-88010000D02*
X105880000Y-87760000D01*
X106130000Y-88410000D02*
X106130000Y-88010000D01*
D33*
X105880000Y-87760000D02*
X103530000Y-87760000D01*
X107588400Y-87760000D02*
X105880000Y-87760000D01*
X101590000Y-89700000D02*
X100380000Y-89700000D01*
D35*
%TO.N,/V9P0*%
X136715000Y-61765000D02*
X141160000Y-61765000D01*
X127305000Y-67130000D02*
X131350000Y-67130000D01*
X131350000Y-67130000D02*
X136715000Y-61765000D01*
D33*
%TO.N,Net-(U1-GPIO20)*%
X130870000Y-94110000D02*
X130870000Y-102450000D01*
X130870000Y-102450000D02*
X130880000Y-102460000D01*
X130880000Y-102460000D02*
X128280001Y-102460000D01*
X134780003Y-102460000D02*
X130880000Y-102460000D01*
D36*
%TO.N,GND*%
X114880000Y-61022160D02*
X114880000Y-61410000D01*
D34*
X108532200Y-88010000D02*
X108782200Y-87760000D01*
D36*
X114880000Y-60660000D02*
X114880000Y-61022160D01*
X115630000Y-61410000D02*
X115302800Y-61444960D01*
D33*
X113855000Y-60495000D02*
X114715000Y-60495000D01*
X114715000Y-60495000D02*
X114880000Y-60660000D01*
X107175000Y-68010000D02*
X108030000Y-68010000D01*
D34*
X108532200Y-89487200D02*
X107880000Y-90139400D01*
D36*
X114880000Y-61410000D02*
X115267840Y-61410000D01*
D34*
X108532200Y-89207800D02*
X108532200Y-88010000D01*
X107880000Y-90139400D02*
X107880000Y-90346500D01*
D33*
X108030000Y-68010000D02*
X108130000Y-67910000D01*
D34*
X108532200Y-89207800D02*
X108532200Y-89487200D01*
D36*
X115267840Y-61410000D02*
X115630000Y-61410000D01*
D33*
%TO.N,Net-(D2-K)*%
X105600000Y-67935000D02*
X105525000Y-68010000D01*
X105600000Y-63675000D02*
X105600000Y-67935000D01*
%TO.N,/V9P0_SW*%
X118715000Y-60495000D02*
X116750600Y-60495000D01*
X116750600Y-62394920D02*
X118645080Y-62394920D01*
X119130000Y-60910000D02*
X118715000Y-60495000D01*
X118645080Y-62394920D02*
X119130000Y-61910000D01*
X119130000Y-61910000D02*
X119130000Y-60910000D01*
%TO.N,/Venc*%
X106180000Y-92410000D02*
X106146198Y-92376198D01*
X109032200Y-89207800D02*
X109032200Y-90677800D01*
X106950000Y-84160000D02*
X106380000Y-84160000D01*
X106146198Y-92376198D02*
X106146198Y-90926200D01*
X108532200Y-86312200D02*
X108532200Y-85742200D01*
X108532200Y-85742200D02*
X106950000Y-84160000D01*
X106146198Y-90926200D02*
X105379998Y-90160000D01*
X108783800Y-90926200D02*
X106146198Y-90926200D01*
X109032200Y-90677800D02*
X108783800Y-90926200D01*
%TO.N,/V3P3*%
X109032200Y-86312200D02*
X109032200Y-84562200D01*
X154220000Y-92060000D02*
X112700000Y-92060000D01*
X156270000Y-94110000D02*
X154220000Y-92060000D01*
X107980000Y-83510000D02*
X107980000Y-83410000D01*
X107980000Y-83410000D02*
X106710000Y-82140000D01*
X107980000Y-83510000D02*
X112420000Y-83510000D01*
X109032200Y-84562200D02*
X107980000Y-83510000D01*
%TO.N,/Lag_3P3*%
X111226700Y-86336700D02*
X111210000Y-86320000D01*
X111210000Y-86320000D02*
X110250000Y-85360000D01*
X119960000Y-86490000D02*
X120380000Y-86910000D01*
X111670000Y-86490000D02*
X111380000Y-86490000D01*
X111670000Y-86490000D02*
X119960000Y-86490000D01*
X111380000Y-86490000D02*
X111210000Y-86320000D01*
X110250000Y-85360000D02*
X110120000Y-85360000D01*
X109976000Y-86759999D02*
X111239999Y-86759999D01*
X111509998Y-86490000D02*
X111670000Y-86490000D01*
X119630000Y-92660000D02*
X119620000Y-92660000D01*
X111239999Y-86759999D02*
X111509998Y-86490000D01*
X119620000Y-92660000D02*
X118170000Y-94110000D01*
%TO.N,/Lead_3P3*%
X113130000Y-89410000D02*
X112030000Y-88310000D01*
X111410000Y-88960000D02*
X112030000Y-88340000D01*
X120380000Y-89410000D02*
X113130000Y-89410000D01*
X111480000Y-87760000D02*
X109976000Y-87760000D01*
X112030000Y-88310000D02*
X111480000Y-87760000D01*
X112030000Y-88340000D02*
X112030000Y-88310000D01*
%TD*%
%TA.AperFunction,Conductor*%
%TO.N,/V5p0*%
G36*
X114433039Y-53605185D02*
G01*
X114478794Y-53657989D01*
X114490000Y-53709500D01*
X114489999Y-59523931D01*
X114470314Y-59590970D01*
X114417510Y-59636725D01*
X114379253Y-59647221D01*
X114345315Y-59650869D01*
X114210467Y-59701164D01*
X114152275Y-59744727D01*
X114086811Y-59769144D01*
X114077965Y-59769460D01*
X113603239Y-59769460D01*
X113603220Y-59769460D01*
X113599928Y-59769461D01*
X113596648Y-59769813D01*
X113596640Y-59769814D01*
X113540315Y-59775869D01*
X113405469Y-59826164D01*
X113290254Y-59912414D01*
X113204004Y-60027628D01*
X113204003Y-60027629D01*
X113204004Y-60027629D01*
X113153709Y-60162477D01*
X113147300Y-60222087D01*
X113147300Y-60225408D01*
X113147300Y-60225409D01*
X113147300Y-60764520D01*
X113147300Y-60764538D01*
X113147301Y-60767832D01*
X113147653Y-60771112D01*
X113147654Y-60771119D01*
X113153709Y-60827444D01*
X113190968Y-60927341D01*
X113195952Y-60997033D01*
X113190968Y-61014006D01*
X113154201Y-61112584D01*
X113148154Y-61168827D01*
X113147800Y-61175441D01*
X113147800Y-61219960D01*
X113590604Y-61219960D01*
X113596828Y-61220126D01*
X113599927Y-61220460D01*
X113828300Y-61220459D01*
X113895339Y-61240143D01*
X113941094Y-61292947D01*
X113952300Y-61344459D01*
X113952300Y-61585098D01*
X113932615Y-61652137D01*
X113879811Y-61697892D01*
X113810653Y-61707836D01*
X113747097Y-61678811D01*
X113740619Y-61672779D01*
X113737800Y-61669960D01*
X113147800Y-61669960D01*
X113147800Y-61714478D01*
X113148154Y-61721092D01*
X113154200Y-61777333D01*
X113191235Y-61876627D01*
X113196219Y-61946319D01*
X113191235Y-61963293D01*
X113154200Y-62062586D01*
X113148154Y-62118827D01*
X113147800Y-62125441D01*
X113147800Y-62169960D01*
X113737799Y-62169960D01*
X113740618Y-62167141D01*
X113801940Y-62133655D01*
X113871632Y-62138639D01*
X113927566Y-62180509D01*
X113951984Y-62245973D01*
X113952300Y-62254821D01*
X113952300Y-62535098D01*
X113932615Y-62602137D01*
X113879811Y-62647892D01*
X113810653Y-62657836D01*
X113747097Y-62628811D01*
X113740619Y-62622779D01*
X113737800Y-62619960D01*
X113147800Y-62619960D01*
X113147800Y-62664478D01*
X113148154Y-62671092D01*
X113154200Y-62727331D01*
X113204447Y-62862049D01*
X113290611Y-62977148D01*
X113405710Y-63063312D01*
X113540428Y-63113559D01*
X113596667Y-63119605D01*
X113603282Y-63119960D01*
X113737800Y-63119960D01*
X113737800Y-62947449D01*
X113757485Y-62880410D01*
X113810289Y-62834655D01*
X113879447Y-62824711D01*
X113943003Y-62853736D01*
X113977981Y-62904115D01*
X114009004Y-62987291D01*
X114095254Y-63102506D01*
X114210469Y-63188756D01*
X114345317Y-63239051D01*
X114379255Y-63242699D01*
X114443805Y-63269436D01*
X114483654Y-63326828D01*
X114490000Y-63365989D01*
X114490000Y-79421000D01*
X114470315Y-79488039D01*
X114417511Y-79533794D01*
X114366000Y-79545000D01*
X91829500Y-79545000D01*
X91762461Y-79525315D01*
X91716706Y-79472511D01*
X91705500Y-79421000D01*
X91705500Y-78260000D01*
X109330001Y-78260000D01*
X109330001Y-78356829D01*
X109330321Y-78363111D01*
X109340493Y-78462695D01*
X109395642Y-78629122D01*
X109487683Y-78778345D01*
X109611654Y-78902316D01*
X109760877Y-78994357D01*
X109927303Y-79049506D01*
X110026890Y-79059680D01*
X110033168Y-79059999D01*
X110130000Y-79059998D01*
X110130000Y-78260000D01*
X110630000Y-78260000D01*
X110630000Y-79059999D01*
X110726829Y-79059999D01*
X110733111Y-79059678D01*
X110832695Y-79049506D01*
X110999122Y-78994357D01*
X111148345Y-78902316D01*
X111272316Y-78778345D01*
X111364357Y-78629122D01*
X111419506Y-78462696D01*
X111429680Y-78363109D01*
X111430000Y-78356831D01*
X111430000Y-78260000D01*
X110630000Y-78260000D01*
X110130000Y-78260000D01*
X109330001Y-78260000D01*
X91705500Y-78260000D01*
X91705500Y-77760000D01*
X109330000Y-77760000D01*
X110130000Y-77760000D01*
X110130000Y-76960000D01*
X110630000Y-76960000D01*
X110630000Y-77760000D01*
X111429999Y-77760000D01*
X111429999Y-77663170D01*
X111429678Y-77656888D01*
X111419506Y-77557304D01*
X111364357Y-77390877D01*
X111272316Y-77241654D01*
X111148345Y-77117683D01*
X110999122Y-77025642D01*
X110832696Y-76970493D01*
X110733109Y-76960319D01*
X110726832Y-76960000D01*
X110630000Y-76960000D01*
X110130000Y-76960000D01*
X110130000Y-76959999D01*
X110033172Y-76960000D01*
X110026888Y-76960321D01*
X109927304Y-76970493D01*
X109760877Y-77025642D01*
X109611654Y-77117683D01*
X109487683Y-77241654D01*
X109395642Y-77390877D01*
X109340493Y-77557303D01*
X109330319Y-77656890D01*
X109330000Y-77663168D01*
X109330000Y-77760000D01*
X91705500Y-77760000D01*
X91705500Y-73195000D01*
X96039531Y-73195000D01*
X96059364Y-73421689D01*
X96118261Y-73641497D01*
X96214432Y-73847735D01*
X96344953Y-74034140D01*
X96505859Y-74195046D01*
X96692264Y-74325567D01*
X96692265Y-74325567D01*
X96692266Y-74325568D01*
X96898504Y-74421739D01*
X97118308Y-74480635D01*
X97345000Y-74500468D01*
X97571692Y-74480635D01*
X97791496Y-74421739D01*
X97997734Y-74325568D01*
X98184139Y-74195047D01*
X98341481Y-74037704D01*
X98402803Y-74004221D01*
X98472494Y-74009205D01*
X98528428Y-74051076D01*
X98543265Y-74088786D01*
X98545959Y-74087782D01*
X98601647Y-74237089D01*
X98687811Y-74352188D01*
X98802910Y-74438352D01*
X98937628Y-74488599D01*
X98993867Y-74494645D01*
X99000482Y-74495000D01*
X99595000Y-74495000D01*
X99594999Y-73510685D01*
X99606955Y-73522641D01*
X99719852Y-73580165D01*
X99813519Y-73595000D01*
X99876481Y-73595000D01*
X99970148Y-73580165D01*
X100083045Y-73522641D01*
X100095000Y-73510686D01*
X100095000Y-74495000D01*
X100689518Y-74495000D01*
X100696132Y-74494645D01*
X100752371Y-74488599D01*
X100887089Y-74438352D01*
X101002188Y-74352188D01*
X101088352Y-74237089D01*
X101138599Y-74102371D01*
X101144645Y-74046132D01*
X101145000Y-74039518D01*
X101145000Y-73445000D01*
X100160686Y-73445000D01*
X100172641Y-73433045D01*
X100230165Y-73320148D01*
X100249986Y-73195000D01*
X100230165Y-73069852D01*
X100172641Y-72956955D01*
X100160686Y-72945000D01*
X101145000Y-72945000D01*
X101145000Y-72350481D01*
X101144645Y-72343867D01*
X101138599Y-72287628D01*
X101088352Y-72152910D01*
X101002188Y-72037811D01*
X100887089Y-71951647D01*
X100752371Y-71901400D01*
X100696132Y-71895354D01*
X100689518Y-71895000D01*
X100095000Y-71895000D01*
X100095000Y-72879314D01*
X100083045Y-72867359D01*
X99970148Y-72809835D01*
X99876481Y-72795000D01*
X99813519Y-72795000D01*
X99719852Y-72809835D01*
X99606955Y-72867359D01*
X99594999Y-72879314D01*
X99595000Y-71895000D01*
X99000482Y-71895000D01*
X98993867Y-71895354D01*
X98937628Y-71901400D01*
X98802910Y-71951647D01*
X98687811Y-72037811D01*
X98601647Y-72152910D01*
X98545959Y-72302218D01*
X98542845Y-72301056D01*
X98525710Y-72342421D01*
X98468317Y-72382268D01*
X98398491Y-72384759D01*
X98341480Y-72352293D01*
X98184140Y-72194953D01*
X97997735Y-72064432D01*
X97791497Y-71968261D01*
X97571689Y-71909364D01*
X97345000Y-71889531D01*
X97118310Y-71909364D01*
X96898502Y-71968261D01*
X96692264Y-72064432D01*
X96505859Y-72194953D01*
X96344953Y-72355859D01*
X96214432Y-72542264D01*
X96118261Y-72748502D01*
X96059364Y-72968310D01*
X96039531Y-73195000D01*
X91705500Y-73195000D01*
X91705500Y-61134999D01*
X104195201Y-61134999D01*
X104214361Y-61366217D01*
X104271319Y-61591139D01*
X104364516Y-61803609D01*
X104448812Y-61932634D01*
X105155549Y-61225896D01*
X105156327Y-61236265D01*
X105205887Y-61362541D01*
X105290465Y-61468599D01*
X105402547Y-61545016D01*
X105510299Y-61578253D01*
X104850370Y-62238181D01*
X104789047Y-62271666D01*
X104762690Y-62274500D01*
X104655439Y-62274500D01*
X104655420Y-62274500D01*
X104652128Y-62274501D01*
X104648848Y-62274853D01*
X104648840Y-62274854D01*
X104592515Y-62280909D01*
X104457669Y-62331204D01*
X104342454Y-62417454D01*
X104256204Y-62532668D01*
X104205910Y-62667515D01*
X104205909Y-62667517D01*
X104199500Y-62727127D01*
X104199500Y-62730448D01*
X104199500Y-62730449D01*
X104199500Y-64619560D01*
X104199500Y-64619578D01*
X104199501Y-64622872D01*
X104205909Y-64682483D01*
X104256204Y-64817331D01*
X104342454Y-64932546D01*
X104457669Y-65018796D01*
X104592517Y-65069091D01*
X104652127Y-65075500D01*
X104848500Y-65075499D01*
X104915539Y-65095183D01*
X104961294Y-65147987D01*
X104972500Y-65199499D01*
X104972500Y-67059606D01*
X104952815Y-67126645D01*
X104912653Y-67165721D01*
X104889817Y-67179526D01*
X104769527Y-67299815D01*
X104681523Y-67445392D01*
X104630913Y-67607806D01*
X104624755Y-67675575D01*
X104624500Y-67678384D01*
X104624500Y-68341616D01*
X104624754Y-68344420D01*
X104624755Y-68344424D01*
X104630913Y-68412193D01*
X104630914Y-68412196D01*
X104681522Y-68574606D01*
X104681523Y-68574607D01*
X104769528Y-68720186D01*
X104889813Y-68840471D01*
X104889815Y-68840472D01*
X105035394Y-68928478D01*
X105197804Y-68979086D01*
X105268384Y-68985500D01*
X105271203Y-68985500D01*
X105778797Y-68985500D01*
X105781616Y-68985500D01*
X105852196Y-68979086D01*
X106014606Y-68928478D01*
X106160185Y-68840472D01*
X106262320Y-68738336D01*
X106323641Y-68704853D01*
X106393333Y-68709837D01*
X106437679Y-68738336D01*
X106539815Y-68840472D01*
X106685394Y-68928478D01*
X106847804Y-68979086D01*
X106918384Y-68985500D01*
X106921203Y-68985500D01*
X107428797Y-68985500D01*
X107431616Y-68985500D01*
X107502196Y-68979086D01*
X107664606Y-68928478D01*
X107810185Y-68840472D01*
X107930472Y-68720185D01*
X107933201Y-68715669D01*
X107984726Y-68668481D01*
X108053205Y-68656596D01*
X108130000Y-68665249D01*
X108298059Y-68646313D01*
X108457690Y-68590456D01*
X108600890Y-68500477D01*
X108720477Y-68380890D01*
X108810456Y-68237690D01*
X108866313Y-68078059D01*
X108885249Y-67910000D01*
X108866313Y-67741941D01*
X108810456Y-67582310D01*
X108720477Y-67439110D01*
X108600890Y-67319523D01*
X108457690Y-67229544D01*
X108298059Y-67173687D01*
X108298058Y-67173686D01*
X108298056Y-67173686D01*
X108130000Y-67154750D01*
X107961939Y-67173686D01*
X107914824Y-67190172D01*
X107845045Y-67193733D01*
X107809723Y-67179247D01*
X107664609Y-67091523D01*
X107502193Y-67040913D01*
X107434424Y-67034755D01*
X107434420Y-67034754D01*
X107431616Y-67034500D01*
X106918384Y-67034500D01*
X106915580Y-67034754D01*
X106915575Y-67034755D01*
X106847806Y-67040913D01*
X106787818Y-67059606D01*
X106685394Y-67091522D01*
X106685392Y-67091522D01*
X106685392Y-67091523D01*
X106539813Y-67179528D01*
X106439181Y-67280161D01*
X106377858Y-67313646D01*
X106308166Y-67308662D01*
X106252233Y-67266790D01*
X106227816Y-67201326D01*
X106227500Y-67192480D01*
X106227500Y-65199499D01*
X106247185Y-65132460D01*
X106299989Y-65086705D01*
X106351500Y-65075499D01*
X106544561Y-65075499D01*
X106547872Y-65075499D01*
X106607483Y-65069091D01*
X106742331Y-65018796D01*
X106857546Y-64932546D01*
X106943796Y-64817331D01*
X106994091Y-64682483D01*
X107000500Y-64622873D01*
X107000499Y-62727128D01*
X106994091Y-62667517D01*
X106943796Y-62532669D01*
X106857546Y-62417454D01*
X106742331Y-62331204D01*
X106607483Y-62280909D01*
X106547873Y-62274500D01*
X106544551Y-62274500D01*
X106437309Y-62274500D01*
X106370270Y-62254815D01*
X106349628Y-62238181D01*
X105688231Y-61576784D01*
X105734138Y-61569865D01*
X105856357Y-61511007D01*
X105955798Y-61418740D01*
X106023625Y-61301260D01*
X106041499Y-61222945D01*
X106751186Y-61932634D01*
X106835483Y-61803607D01*
X106928680Y-61591138D01*
X106985638Y-61366217D01*
X107004798Y-61134999D01*
X106985638Y-60903782D01*
X106928680Y-60678860D01*
X106835484Y-60466392D01*
X106751186Y-60337364D01*
X106044449Y-61044100D01*
X106043673Y-61033735D01*
X105994113Y-60907459D01*
X105909535Y-60801401D01*
X105797453Y-60724984D01*
X105689698Y-60691746D01*
X106398799Y-59982647D01*
X106368349Y-59958948D01*
X106164299Y-59848522D01*
X105944859Y-59773188D01*
X105716007Y-59735000D01*
X105483993Y-59735000D01*
X105255140Y-59773188D01*
X105035703Y-59848521D01*
X104831645Y-59958952D01*
X104801200Y-59982646D01*
X104801200Y-59982647D01*
X105511768Y-60693215D01*
X105465862Y-60700135D01*
X105343643Y-60758993D01*
X105244202Y-60851260D01*
X105176375Y-60968740D01*
X105158500Y-61047053D01*
X104448812Y-60337365D01*
X104364516Y-60466390D01*
X104271319Y-60678860D01*
X104214361Y-60903782D01*
X104195201Y-61134999D01*
X91705500Y-61134999D01*
X91705500Y-56053750D01*
X91705726Y-56046263D01*
X91723016Y-55760423D01*
X91724821Y-55745558D01*
X91775763Y-55467578D01*
X91779341Y-55453060D01*
X91863428Y-55183210D01*
X91868723Y-55169251D01*
X91984721Y-54911516D01*
X91991664Y-54898287D01*
X92137884Y-54656407D01*
X92146371Y-54644112D01*
X92320678Y-54421626D01*
X92330593Y-54410435D01*
X92530435Y-54210593D01*
X92541626Y-54200678D01*
X92764112Y-54026371D01*
X92776407Y-54017884D01*
X93018287Y-53871664D01*
X93031516Y-53864721D01*
X93289251Y-53748723D01*
X93303210Y-53743428D01*
X93573060Y-53659341D01*
X93587574Y-53655763D01*
X93865562Y-53604820D01*
X93880420Y-53603016D01*
X94166263Y-53585726D01*
X94173751Y-53585500D01*
X114366000Y-53585500D01*
X114433039Y-53605185D01*
G37*
%TD.AperFunction*%
%TD*%
%TA.AperFunction,Conductor*%
%TO.N,/VSYS*%
G36*
X165293736Y-53585726D02*
G01*
X165579577Y-53603016D01*
X165594439Y-53604820D01*
X165730670Y-53629786D01*
X165872421Y-53655763D01*
X165886943Y-53659342D01*
X166156784Y-53743427D01*
X166170754Y-53748725D01*
X166428476Y-53864718D01*
X166441718Y-53871668D01*
X166683584Y-54017879D01*
X166695894Y-54026377D01*
X166918364Y-54200671D01*
X166929572Y-54210601D01*
X167129398Y-54410427D01*
X167139328Y-54421635D01*
X167313618Y-54644099D01*
X167322122Y-54656419D01*
X167398546Y-54782840D01*
X167468327Y-54898273D01*
X167475285Y-54911531D01*
X167591270Y-55169237D01*
X167596575Y-55183225D01*
X167680653Y-55453040D01*
X167684236Y-55467578D01*
X167735178Y-55745558D01*
X167736983Y-55760423D01*
X167754273Y-56046262D01*
X167754499Y-56053749D01*
X167754499Y-73162283D01*
X167734814Y-73229322D01*
X167682010Y-73275077D01*
X167612852Y-73285021D01*
X167556189Y-73261550D01*
X167522331Y-73236204D01*
X167387483Y-73185909D01*
X167327873Y-73179500D01*
X167324550Y-73179500D01*
X165535439Y-73179500D01*
X165535420Y-73179500D01*
X165532128Y-73179501D01*
X165528848Y-73179853D01*
X165528840Y-73179854D01*
X165472515Y-73185909D01*
X165337667Y-73236204D01*
X165234310Y-73313577D01*
X165168846Y-73337994D01*
X165100573Y-73323142D01*
X165085690Y-73313577D01*
X164982333Y-73236205D01*
X164982331Y-73236204D01*
X164847483Y-73185909D01*
X164787873Y-73179500D01*
X164784550Y-73179500D01*
X162995439Y-73179500D01*
X162995420Y-73179500D01*
X162992128Y-73179501D01*
X162988848Y-73179853D01*
X162988840Y-73179854D01*
X162932515Y-73185909D01*
X162797667Y-73236204D01*
X162694310Y-73313577D01*
X162628846Y-73337994D01*
X162560573Y-73323142D01*
X162545690Y-73313577D01*
X162442333Y-73236205D01*
X162442331Y-73236204D01*
X162307483Y-73185909D01*
X162247873Y-73179500D01*
X162244550Y-73179500D01*
X160455439Y-73179500D01*
X160455420Y-73179500D01*
X160452128Y-73179501D01*
X160448848Y-73179853D01*
X160448840Y-73179854D01*
X160392515Y-73185909D01*
X160257667Y-73236204D01*
X160154310Y-73313577D01*
X160088846Y-73337994D01*
X160020573Y-73323142D01*
X160005690Y-73313577D01*
X159902333Y-73236205D01*
X159902331Y-73236204D01*
X159767483Y-73185909D01*
X159707873Y-73179500D01*
X159704550Y-73179500D01*
X157915439Y-73179500D01*
X157915420Y-73179500D01*
X157912128Y-73179501D01*
X157908848Y-73179853D01*
X157908840Y-73179854D01*
X157852515Y-73185909D01*
X157717667Y-73236204D01*
X157614310Y-73313577D01*
X157548846Y-73337994D01*
X157480573Y-73323142D01*
X157465690Y-73313577D01*
X157362333Y-73236205D01*
X157362331Y-73236204D01*
X157227483Y-73185909D01*
X157167873Y-73179500D01*
X157164550Y-73179500D01*
X155375439Y-73179500D01*
X155375420Y-73179500D01*
X155372128Y-73179501D01*
X155368848Y-73179853D01*
X155368840Y-73179854D01*
X155312515Y-73185909D01*
X155177667Y-73236204D01*
X155074310Y-73313577D01*
X155008846Y-73337994D01*
X154940573Y-73323142D01*
X154925690Y-73313577D01*
X154822333Y-73236205D01*
X154822331Y-73236204D01*
X154687483Y-73185909D01*
X154627873Y-73179500D01*
X154624550Y-73179500D01*
X152835439Y-73179500D01*
X152835420Y-73179500D01*
X152832128Y-73179501D01*
X152828848Y-73179853D01*
X152828840Y-73179854D01*
X152772515Y-73185909D01*
X152637667Y-73236204D01*
X152534310Y-73313577D01*
X152468846Y-73337994D01*
X152400573Y-73323142D01*
X152385690Y-73313577D01*
X152282333Y-73236205D01*
X152282331Y-73236204D01*
X152147483Y-73185909D01*
X152087873Y-73179500D01*
X152084550Y-73179500D01*
X150295439Y-73179500D01*
X150295420Y-73179500D01*
X150292128Y-73179501D01*
X150288848Y-73179853D01*
X150288840Y-73179854D01*
X150232515Y-73185909D01*
X150097667Y-73236204D01*
X149994310Y-73313577D01*
X149928846Y-73337994D01*
X149860573Y-73323142D01*
X149845690Y-73313577D01*
X149742333Y-73236205D01*
X149742331Y-73236204D01*
X149607483Y-73185909D01*
X149547873Y-73179500D01*
X149544550Y-73179500D01*
X147755439Y-73179500D01*
X147755420Y-73179500D01*
X147752128Y-73179501D01*
X147748848Y-73179853D01*
X147748840Y-73179854D01*
X147692515Y-73185909D01*
X147557667Y-73236204D01*
X147454310Y-73313577D01*
X147388846Y-73337994D01*
X147320573Y-73323142D01*
X147305690Y-73313577D01*
X147202333Y-73236205D01*
X147202331Y-73236204D01*
X147067483Y-73185909D01*
X147007873Y-73179500D01*
X147004550Y-73179500D01*
X145215439Y-73179500D01*
X145215420Y-73179500D01*
X145212128Y-73179501D01*
X145208848Y-73179853D01*
X145208840Y-73179854D01*
X145152515Y-73185909D01*
X145017667Y-73236204D01*
X144914310Y-73313577D01*
X144848846Y-73337994D01*
X144780573Y-73323142D01*
X144765690Y-73313577D01*
X144662333Y-73236205D01*
X144662331Y-73236204D01*
X144527483Y-73185909D01*
X144467873Y-73179500D01*
X144464550Y-73179500D01*
X142675439Y-73179500D01*
X142675420Y-73179500D01*
X142672128Y-73179501D01*
X142668848Y-73179853D01*
X142668840Y-73179854D01*
X142612515Y-73185909D01*
X142477667Y-73236204D01*
X142374310Y-73313577D01*
X142308846Y-73337994D01*
X142240573Y-73323142D01*
X142225690Y-73313577D01*
X142122333Y-73236205D01*
X142122331Y-73236204D01*
X141987483Y-73185909D01*
X141927873Y-73179500D01*
X141924550Y-73179500D01*
X140135439Y-73179500D01*
X140135420Y-73179500D01*
X140132128Y-73179501D01*
X140128848Y-73179853D01*
X140128840Y-73179854D01*
X140072515Y-73185909D01*
X139937667Y-73236204D01*
X139834310Y-73313577D01*
X139768846Y-73337994D01*
X139700573Y-73323142D01*
X139685690Y-73313577D01*
X139582333Y-73236205D01*
X139582331Y-73236204D01*
X139447483Y-73185909D01*
X139387873Y-73179500D01*
X139384550Y-73179500D01*
X137595439Y-73179500D01*
X137595420Y-73179500D01*
X137592128Y-73179501D01*
X137588848Y-73179853D01*
X137588840Y-73179854D01*
X137532515Y-73185909D01*
X137397667Y-73236204D01*
X137294310Y-73313577D01*
X137228846Y-73337994D01*
X137160573Y-73323142D01*
X137145690Y-73313577D01*
X137042333Y-73236205D01*
X137042331Y-73236204D01*
X136907483Y-73185909D01*
X136847873Y-73179500D01*
X136844550Y-73179500D01*
X135055439Y-73179500D01*
X135055420Y-73179500D01*
X135052128Y-73179501D01*
X135048848Y-73179853D01*
X135048840Y-73179854D01*
X134992515Y-73185909D01*
X134857667Y-73236204D01*
X134754310Y-73313577D01*
X134688846Y-73337994D01*
X134620573Y-73323142D01*
X134605690Y-73313577D01*
X134502333Y-73236205D01*
X134502331Y-73236204D01*
X134367483Y-73185909D01*
X134307873Y-73179500D01*
X134304550Y-73179500D01*
X132515439Y-73179500D01*
X132515420Y-73179500D01*
X132512128Y-73179501D01*
X132508848Y-73179853D01*
X132508840Y-73179854D01*
X132452515Y-73185909D01*
X132317667Y-73236204D01*
X132214310Y-73313577D01*
X132148846Y-73337994D01*
X132080573Y-73323142D01*
X132065690Y-73313577D01*
X131962333Y-73236205D01*
X131962331Y-73236204D01*
X131827483Y-73185909D01*
X131767873Y-73179500D01*
X131764550Y-73179500D01*
X129975439Y-73179500D01*
X129975420Y-73179500D01*
X129972128Y-73179501D01*
X129968848Y-73179853D01*
X129968840Y-73179854D01*
X129912515Y-73185909D01*
X129777667Y-73236204D01*
X129674310Y-73313577D01*
X129608846Y-73337994D01*
X129540573Y-73323142D01*
X129525690Y-73313577D01*
X129422333Y-73236205D01*
X129422331Y-73236204D01*
X129287483Y-73185909D01*
X129227873Y-73179500D01*
X129224550Y-73179500D01*
X127435439Y-73179500D01*
X127435420Y-73179500D01*
X127432128Y-73179501D01*
X127428848Y-73179853D01*
X127428840Y-73179854D01*
X127372515Y-73185909D01*
X127237667Y-73236204D01*
X127134310Y-73313577D01*
X127068846Y-73337994D01*
X127000573Y-73323142D01*
X126985690Y-73313577D01*
X126882333Y-73236205D01*
X126882331Y-73236204D01*
X126747483Y-73185909D01*
X126687873Y-73179500D01*
X126684550Y-73179500D01*
X124895439Y-73179500D01*
X124895420Y-73179500D01*
X124892128Y-73179501D01*
X124888848Y-73179853D01*
X124888840Y-73179854D01*
X124832515Y-73185909D01*
X124697667Y-73236204D01*
X124594310Y-73313577D01*
X124528846Y-73337994D01*
X124460573Y-73323142D01*
X124445690Y-73313577D01*
X124342333Y-73236205D01*
X124342331Y-73236204D01*
X124207483Y-73185909D01*
X124147873Y-73179500D01*
X124144550Y-73179500D01*
X122355439Y-73179500D01*
X122355420Y-73179500D01*
X122352128Y-73179501D01*
X122348848Y-73179853D01*
X122348840Y-73179854D01*
X122292515Y-73185909D01*
X122157667Y-73236204D01*
X122054310Y-73313577D01*
X121988846Y-73337994D01*
X121920573Y-73323142D01*
X121905690Y-73313577D01*
X121802333Y-73236205D01*
X121802331Y-73236204D01*
X121667483Y-73185909D01*
X121607873Y-73179500D01*
X121604550Y-73179500D01*
X119815439Y-73179500D01*
X119815420Y-73179500D01*
X119812128Y-73179501D01*
X119808848Y-73179853D01*
X119808840Y-73179854D01*
X119752515Y-73185909D01*
X119617667Y-73236204D01*
X119514310Y-73313577D01*
X119448846Y-73337994D01*
X119380573Y-73323142D01*
X119365690Y-73313577D01*
X119262333Y-73236205D01*
X119262331Y-73236204D01*
X119127483Y-73185909D01*
X119067873Y-73179500D01*
X119064550Y-73179500D01*
X117275439Y-73179500D01*
X117275420Y-73179500D01*
X117272128Y-73179501D01*
X117268848Y-73179853D01*
X117268840Y-73179854D01*
X117212515Y-73185909D01*
X117077669Y-73236204D01*
X116962454Y-73322454D01*
X116876204Y-73437668D01*
X116876203Y-73437669D01*
X116876204Y-73437669D01*
X116825909Y-73572517D01*
X116819500Y-73632127D01*
X116819500Y-73635449D01*
X116819500Y-76265614D01*
X116819028Y-76276421D01*
X116814340Y-76330000D01*
X116819028Y-76383579D01*
X116819500Y-76394386D01*
X116819500Y-77224560D01*
X116819500Y-77224578D01*
X116819501Y-77227872D01*
X116825909Y-77287483D01*
X116876204Y-77422331D01*
X116962454Y-77537546D01*
X117077669Y-77623796D01*
X117212517Y-77674091D01*
X117272127Y-77680500D01*
X118105613Y-77680499D01*
X118116422Y-77680971D01*
X118170000Y-77685659D01*
X118223578Y-77680971D01*
X118234387Y-77680499D01*
X119064561Y-77680499D01*
X119067872Y-77680499D01*
X119127483Y-77674091D01*
X119262331Y-77623796D01*
X119365689Y-77546421D01*
X119431154Y-77522005D01*
X119499427Y-77536857D01*
X119514309Y-77546421D01*
X119617669Y-77623796D01*
X119752517Y-77674091D01*
X119812127Y-77680500D01*
X120645613Y-77680499D01*
X120656422Y-77680971D01*
X120710000Y-77685659D01*
X120763578Y-77680971D01*
X120774387Y-77680499D01*
X121604561Y-77680499D01*
X121607872Y-77680499D01*
X121667483Y-77674091D01*
X121802331Y-77623796D01*
X121905689Y-77546421D01*
X121971154Y-77522005D01*
X122039427Y-77536857D01*
X122054309Y-77546421D01*
X122157669Y-77623796D01*
X122292517Y-77674091D01*
X122352127Y-77680500D01*
X124147872Y-77680499D01*
X124207483Y-77674091D01*
X124342331Y-77623796D01*
X124445689Y-77546421D01*
X124511154Y-77522005D01*
X124579427Y-77536857D01*
X124594309Y-77546421D01*
X124697669Y-77623796D01*
X124832517Y-77674091D01*
X124892127Y-77680500D01*
X125725613Y-77680499D01*
X125736422Y-77680971D01*
X125790000Y-77685659D01*
X125843578Y-77680971D01*
X125854387Y-77680499D01*
X126684561Y-77680499D01*
X126687872Y-77680499D01*
X126747483Y-77674091D01*
X126882331Y-77623796D01*
X126985689Y-77546421D01*
X127051154Y-77522005D01*
X127119427Y-77536857D01*
X127134309Y-77546421D01*
X127237669Y-77623796D01*
X127372517Y-77674091D01*
X127432127Y-77680500D01*
X128265613Y-77680499D01*
X128276422Y-77680971D01*
X128330000Y-77685659D01*
X128383578Y-77680971D01*
X128394387Y-77680499D01*
X129224561Y-77680499D01*
X129227872Y-77680499D01*
X129287483Y-77674091D01*
X129422331Y-77623796D01*
X129525689Y-77546421D01*
X129591154Y-77522005D01*
X129659427Y-77536857D01*
X129674309Y-77546421D01*
X129777669Y-77623796D01*
X129912517Y-77674091D01*
X129972127Y-77680500D01*
X130805613Y-77680499D01*
X130816422Y-77680971D01*
X130870000Y-77685659D01*
X130923578Y-77680971D01*
X130934387Y-77680499D01*
X131764561Y-77680499D01*
X131767872Y-77680499D01*
X131827483Y-77674091D01*
X131962331Y-77623796D01*
X132065689Y-77546421D01*
X132131154Y-77522005D01*
X132199427Y-77536857D01*
X132214309Y-77546421D01*
X132317669Y-77623796D01*
X132452517Y-77674091D01*
X132512127Y-77680500D01*
X133345613Y-77680499D01*
X133356422Y-77680971D01*
X133410000Y-77685659D01*
X133463578Y-77680971D01*
X133474387Y-77680499D01*
X134304561Y-77680499D01*
X134307872Y-77680499D01*
X134367483Y-77674091D01*
X134502331Y-77623796D01*
X134605689Y-77546421D01*
X134671154Y-77522005D01*
X134739427Y-77536857D01*
X134754309Y-77546421D01*
X134857669Y-77623796D01*
X134992517Y-77674091D01*
X135052127Y-77680500D01*
X136847872Y-77680499D01*
X136907483Y-77674091D01*
X137042331Y-77623796D01*
X137145689Y-77546421D01*
X137211154Y-77522005D01*
X137279427Y-77536857D01*
X137294309Y-77546421D01*
X137397669Y-77623796D01*
X137532517Y-77674091D01*
X137592127Y-77680500D01*
X138425613Y-77680499D01*
X138436422Y-77680971D01*
X138490000Y-77685659D01*
X138543578Y-77680971D01*
X138554387Y-77680499D01*
X139384561Y-77680499D01*
X139387872Y-77680499D01*
X139447483Y-77674091D01*
X139582331Y-77623796D01*
X139685689Y-77546421D01*
X139751154Y-77522005D01*
X139819427Y-77536857D01*
X139834309Y-77546421D01*
X139937669Y-77623796D01*
X140072517Y-77674091D01*
X140132127Y-77680500D01*
X140965613Y-77680499D01*
X140976422Y-77680971D01*
X141030000Y-77685659D01*
X141083578Y-77680971D01*
X141094387Y-77680499D01*
X141924561Y-77680499D01*
X141927872Y-77680499D01*
X141987483Y-77674091D01*
X142122331Y-77623796D01*
X142225689Y-77546421D01*
X142291154Y-77522005D01*
X142359427Y-77536857D01*
X142374309Y-77546421D01*
X142477669Y-77623796D01*
X142612517Y-77674091D01*
X142672127Y-77680500D01*
X143505613Y-77680499D01*
X143516422Y-77680971D01*
X143570000Y-77685659D01*
X143623578Y-77680971D01*
X143634387Y-77680499D01*
X144464561Y-77680499D01*
X144467872Y-77680499D01*
X144527483Y-77674091D01*
X144662331Y-77623796D01*
X144765689Y-77546421D01*
X144831154Y-77522005D01*
X144899427Y-77536857D01*
X144914309Y-77546421D01*
X145017669Y-77623796D01*
X145152517Y-77674091D01*
X145212127Y-77680500D01*
X146045613Y-77680499D01*
X146056422Y-77680971D01*
X146110000Y-77685659D01*
X146163578Y-77680971D01*
X146174387Y-77680499D01*
X147004561Y-77680499D01*
X147007872Y-77680499D01*
X147067483Y-77674091D01*
X147202331Y-77623796D01*
X147305689Y-77546421D01*
X147371154Y-77522005D01*
X147439427Y-77536857D01*
X147454309Y-77546421D01*
X147557669Y-77623796D01*
X147692517Y-77674091D01*
X147752127Y-77680500D01*
X149547872Y-77680499D01*
X149607483Y-77674091D01*
X149742331Y-77623796D01*
X149845689Y-77546421D01*
X149911154Y-77522005D01*
X149979427Y-77536857D01*
X149994309Y-77546421D01*
X150097669Y-77623796D01*
X150232517Y-77674091D01*
X150292127Y-77680500D01*
X151125613Y-77680499D01*
X151136422Y-77680971D01*
X151190000Y-77685659D01*
X151243578Y-77680971D01*
X151254387Y-77680499D01*
X152084561Y-77680499D01*
X152087872Y-77680499D01*
X152147483Y-77674091D01*
X152282331Y-77623796D01*
X152385689Y-77546421D01*
X152451154Y-77522005D01*
X152519427Y-77536857D01*
X152534309Y-77546421D01*
X152637669Y-77623796D01*
X152772517Y-77674091D01*
X152832127Y-77680500D01*
X153665613Y-77680499D01*
X153676422Y-77680971D01*
X153730000Y-77685659D01*
X153783578Y-77680971D01*
X153794387Y-77680499D01*
X154624561Y-77680499D01*
X154627872Y-77680499D01*
X154687483Y-77674091D01*
X154822331Y-77623796D01*
X154925689Y-77546421D01*
X154991154Y-77522005D01*
X155059427Y-77536857D01*
X155074309Y-77546421D01*
X155177669Y-77623796D01*
X155312517Y-77674091D01*
X155372127Y-77680500D01*
X156205613Y-77680499D01*
X156216422Y-77680971D01*
X156270000Y-77685659D01*
X156323578Y-77680971D01*
X156334387Y-77680499D01*
X157164561Y-77680499D01*
X157167872Y-77680499D01*
X157227483Y-77674091D01*
X157362331Y-77623796D01*
X157465689Y-77546421D01*
X157531154Y-77522005D01*
X157599427Y-77536857D01*
X157614309Y-77546421D01*
X157717669Y-77623796D01*
X157852517Y-77674091D01*
X157912127Y-77680500D01*
X158745613Y-77680499D01*
X158756422Y-77680971D01*
X158810000Y-77685659D01*
X158863578Y-77680971D01*
X158874387Y-77680499D01*
X158998772Y-77680499D01*
X159065811Y-77700184D01*
X159111566Y-77752988D01*
X159121510Y-77822146D01*
X159092485Y-77885702D01*
X159086453Y-77892180D01*
X159039524Y-77939108D01*
X158949544Y-78082310D01*
X158893686Y-78241943D01*
X158874750Y-78409999D01*
X158893686Y-78578056D01*
X158893686Y-78578058D01*
X158893687Y-78578059D01*
X158949544Y-78737690D01*
X159039523Y-78880890D01*
X159159110Y-79000477D01*
X159302310Y-79090456D01*
X159461941Y-79146313D01*
X159630000Y-79165249D01*
X159798059Y-79146313D01*
X159807558Y-79142988D01*
X159877335Y-79139426D01*
X159937963Y-79174154D01*
X159970191Y-79236147D01*
X159963788Y-79305722D01*
X159953509Y-79325998D01*
X159949545Y-79332305D01*
X159893686Y-79491943D01*
X159874750Y-79660000D01*
X159893686Y-79828056D01*
X159893686Y-79828058D01*
X159893687Y-79828059D01*
X159949544Y-79987690D01*
X160039523Y-80130890D01*
X160159110Y-80250477D01*
X160302310Y-80340456D01*
X160461941Y-80396313D01*
X160573980Y-80408936D01*
X160629999Y-80415249D01*
X160629999Y-80415248D01*
X160630000Y-80415249D01*
X160798059Y-80396313D01*
X160957690Y-80340456D01*
X161011721Y-80306505D01*
X161077693Y-80287500D01*
X163017034Y-80287500D01*
X163037601Y-80289770D01*
X163040475Y-80289679D01*
X163040477Y-80289680D01*
X163107918Y-80287561D01*
X163111813Y-80287500D01*
X163135574Y-80287500D01*
X163139476Y-80287500D01*
X163143482Y-80286993D01*
X163155113Y-80286077D01*
X163198943Y-80284701D01*
X163218280Y-80279082D01*
X163237321Y-80275138D01*
X163257293Y-80272616D01*
X163298055Y-80256476D01*
X163309092Y-80252698D01*
X163351191Y-80240468D01*
X163368510Y-80230224D01*
X163385994Y-80221659D01*
X163404703Y-80214253D01*
X163440168Y-80188485D01*
X163449915Y-80182081D01*
X163487656Y-80159763D01*
X163501892Y-80145526D01*
X163516679Y-80132896D01*
X163532967Y-80121063D01*
X163560904Y-80087290D01*
X163568756Y-80078661D01*
X165930600Y-77716818D01*
X165991923Y-77683333D01*
X166018281Y-77680499D01*
X166365613Y-77680499D01*
X166376422Y-77680971D01*
X166430000Y-77685659D01*
X166483578Y-77680971D01*
X166494387Y-77680499D01*
X167324561Y-77680499D01*
X167327872Y-77680499D01*
X167387483Y-77674091D01*
X167522331Y-77623796D01*
X167556191Y-77598448D01*
X167621653Y-77574032D01*
X167689926Y-77588883D01*
X167739332Y-77638288D01*
X167754500Y-77697716D01*
X167754500Y-81744197D01*
X167734815Y-81811236D01*
X167682011Y-81856991D01*
X167612853Y-81866935D01*
X167549297Y-81837910D01*
X167526692Y-81812020D01*
X167515152Y-81794357D01*
X167483606Y-81746072D01*
X167481879Y-81743351D01*
X167430069Y-81659205D01*
X167423454Y-81651689D01*
X167412730Y-81637588D01*
X167408980Y-81631849D01*
X167408979Y-81631847D01*
X167341876Y-81558953D01*
X167340068Y-81556944D01*
X167338168Y-81554785D01*
X167272564Y-81480245D01*
X167271253Y-81479186D01*
X167267439Y-81476106D01*
X167254115Y-81463619D01*
X167251785Y-81461088D01*
X167249801Y-81459544D01*
X167170066Y-81397484D01*
X167121683Y-81358417D01*
X167087079Y-81330476D01*
X167084315Y-81328932D01*
X167068637Y-81318538D01*
X167068626Y-81318529D01*
X166974837Y-81267774D01*
X166878762Y-81214103D01*
X166867401Y-81209059D01*
X166809953Y-81189337D01*
X166760723Y-81172436D01*
X166734325Y-81163109D01*
X166651203Y-81133740D01*
X166533675Y-81114128D01*
X166419202Y-81094500D01*
X166419200Y-81094500D01*
X166416049Y-81094500D01*
X166183951Y-81094500D01*
X166183949Y-81094500D01*
X166129991Y-81103503D01*
X166120102Y-81104747D01*
X166062460Y-81109653D01*
X166013077Y-81122511D01*
X166002249Y-81124819D01*
X165955023Y-81132701D01*
X165955021Y-81132701D01*
X165955019Y-81132702D01*
X165900056Y-81151570D01*
X165891052Y-81154284D01*
X165831748Y-81169725D01*
X165788361Y-81189337D01*
X165777554Y-81193624D01*
X165735496Y-81208063D01*
X165681395Y-81237341D01*
X165673460Y-81241276D01*
X165614509Y-81267925D01*
X165577882Y-81292679D01*
X165567470Y-81298994D01*
X165531373Y-81318529D01*
X165480124Y-81358417D01*
X165473402Y-81363296D01*
X165416999Y-81401418D01*
X165387549Y-81429643D01*
X165377919Y-81437967D01*
X165348216Y-81461087D01*
X165348214Y-81461088D01*
X165348214Y-81461089D01*
X165301926Y-81511369D01*
X165296500Y-81516905D01*
X165244883Y-81566376D01*
X165222659Y-81596426D01*
X165214196Y-81606670D01*
X165191023Y-81631843D01*
X165151782Y-81691905D01*
X165147671Y-81697815D01*
X165103119Y-81758054D01*
X165087826Y-81788384D01*
X165080917Y-81800371D01*
X165064077Y-81826147D01*
X165033887Y-81894974D01*
X165031054Y-81900987D01*
X164995792Y-81970925D01*
X164986847Y-82000131D01*
X164981842Y-82013620D01*
X164970844Y-82038695D01*
X164951552Y-82114871D01*
X164949912Y-82120736D01*
X164925983Y-82198875D01*
X164922538Y-82225775D01*
X164919750Y-82240455D01*
X164913865Y-82263697D01*
X164907097Y-82345377D01*
X164906517Y-82350886D01*
X164895701Y-82435348D01*
X164896707Y-82459025D01*
X164896396Y-82474520D01*
X164894699Y-82494998D01*
X164901750Y-82580097D01*
X164902061Y-82585071D01*
X164905820Y-82673532D01*
X164910092Y-82693356D01*
X164912451Y-82709237D01*
X164913865Y-82726301D01*
X164913865Y-82726304D01*
X164913866Y-82726305D01*
X164925864Y-82773686D01*
X164935661Y-82812371D01*
X164936669Y-82816676D01*
X164949986Y-82878465D01*
X164956046Y-82906581D01*
X164962333Y-82922226D01*
X164967479Y-82938017D01*
X164970843Y-82951301D01*
X165007875Y-83035727D01*
X165009377Y-83039301D01*
X165044936Y-83127790D01*
X165051979Y-83139229D01*
X165059945Y-83154431D01*
X165064076Y-83163849D01*
X165116366Y-83243886D01*
X165118142Y-83246686D01*
X165122753Y-83254173D01*
X165169931Y-83330796D01*
X165176539Y-83338303D01*
X165187268Y-83352409D01*
X165191021Y-83358153D01*
X165258117Y-83431040D01*
X165259930Y-83433054D01*
X165316060Y-83496830D01*
X165327437Y-83509756D01*
X165332561Y-83513894D01*
X165345886Y-83526382D01*
X165348216Y-83528913D01*
X165406851Y-83574550D01*
X165429933Y-83592515D01*
X165481195Y-83633907D01*
X165512920Y-83659523D01*
X165515685Y-83661067D01*
X165531359Y-83671458D01*
X165531374Y-83671470D01*
X165625162Y-83722225D01*
X165721046Y-83775790D01*
X165721051Y-83775791D01*
X165721252Y-83775904D01*
X165732584Y-83780935D01*
X165735492Y-83781933D01*
X165735497Y-83781936D01*
X165839276Y-83817563D01*
X165945829Y-83855211D01*
X165945836Y-83855212D01*
X165948802Y-83856260D01*
X165955015Y-83857296D01*
X165955019Y-83857298D01*
X166048070Y-83872825D01*
X166066324Y-83875871D01*
X166180799Y-83895500D01*
X166180800Y-83895500D01*
X166416047Y-83895500D01*
X166416049Y-83895500D01*
X166470010Y-83886494D01*
X166479905Y-83885251D01*
X166537541Y-83880346D01*
X166586941Y-83867482D01*
X166597760Y-83865177D01*
X166627221Y-83860261D01*
X166644982Y-83857298D01*
X166699946Y-83838428D01*
X166708949Y-83835714D01*
X166768249Y-83820275D01*
X166811642Y-83800659D01*
X166822443Y-83796374D01*
X166864503Y-83781936D01*
X166918622Y-83752647D01*
X166926530Y-83748726D01*
X166985486Y-83722077D01*
X167022108Y-83697324D01*
X167032515Y-83691011D01*
X167068626Y-83671470D01*
X167119877Y-83631578D01*
X167126589Y-83626706D01*
X167172226Y-83595863D01*
X167183002Y-83588580D01*
X167188341Y-83583463D01*
X167212460Y-83560345D01*
X167222064Y-83552044D01*
X167251784Y-83528913D01*
X167298081Y-83478619D01*
X167303490Y-83473100D01*
X167355118Y-83423621D01*
X167377350Y-83393559D01*
X167385797Y-83383333D01*
X167408979Y-83358153D01*
X167448238Y-83298060D01*
X167452312Y-83292203D01*
X167496879Y-83231947D01*
X167512163Y-83201630D01*
X167519077Y-83189634D01*
X167523418Y-83182990D01*
X167526691Y-83177979D01*
X167579836Y-83132624D01*
X167649067Y-83123199D01*
X167712403Y-83152700D01*
X167749736Y-83211759D01*
X167754500Y-83245801D01*
X167754500Y-87194197D01*
X167734815Y-87261236D01*
X167682011Y-87306991D01*
X167612853Y-87316935D01*
X167549297Y-87287910D01*
X167526692Y-87262020D01*
X167513285Y-87241500D01*
X167483606Y-87196072D01*
X167481879Y-87193351D01*
X167430069Y-87109205D01*
X167423454Y-87101689D01*
X167412730Y-87087588D01*
X167408980Y-87081849D01*
X167408979Y-87081847D01*
X167341876Y-87008953D01*
X167340068Y-87006944D01*
X167272564Y-86930245D01*
X167271253Y-86929186D01*
X167267439Y-86926106D01*
X167254115Y-86913619D01*
X167251785Y-86911088D01*
X167170066Y-86847484D01*
X167087079Y-86780476D01*
X167084315Y-86778932D01*
X167068637Y-86768538D01*
X167068626Y-86768529D01*
X166974837Y-86717774D01*
X166936463Y-86696337D01*
X166878954Y-86664210D01*
X166878952Y-86664209D01*
X166878762Y-86664103D01*
X166867401Y-86659059D01*
X166854855Y-86654752D01*
X166760723Y-86622436D01*
X166688780Y-86597017D01*
X166651203Y-86583740D01*
X166533675Y-86564128D01*
X166419202Y-86544500D01*
X166419200Y-86544500D01*
X166416049Y-86544500D01*
X166183951Y-86544500D01*
X166183949Y-86544500D01*
X166129991Y-86553503D01*
X166120102Y-86554747D01*
X166062460Y-86559653D01*
X166013077Y-86572511D01*
X166002249Y-86574819D01*
X165955023Y-86582701D01*
X165955021Y-86582701D01*
X165955019Y-86582702D01*
X165900056Y-86601570D01*
X165891052Y-86604284D01*
X165831748Y-86619725D01*
X165788361Y-86639337D01*
X165777554Y-86643624D01*
X165735496Y-86658063D01*
X165681395Y-86687341D01*
X165673460Y-86691276D01*
X165614509Y-86717925D01*
X165577882Y-86742679D01*
X165567470Y-86748994D01*
X165531373Y-86768529D01*
X165480124Y-86808417D01*
X165473402Y-86813296D01*
X165416999Y-86851418D01*
X165387549Y-86879643D01*
X165377919Y-86887967D01*
X165348216Y-86911087D01*
X165348214Y-86911088D01*
X165348214Y-86911089D01*
X165301926Y-86961369D01*
X165296500Y-86966905D01*
X165244883Y-87016376D01*
X165222659Y-87046426D01*
X165214196Y-87056670D01*
X165191023Y-87081843D01*
X165151782Y-87141905D01*
X165147671Y-87147815D01*
X165103119Y-87208054D01*
X165087826Y-87238384D01*
X165080917Y-87250371D01*
X165064077Y-87276147D01*
X165046186Y-87316935D01*
X165037293Y-87337210D01*
X165033887Y-87344974D01*
X165031054Y-87350987D01*
X164995792Y-87420925D01*
X164986847Y-87450131D01*
X164981842Y-87463620D01*
X164970844Y-87488695D01*
X164951552Y-87564871D01*
X164949912Y-87570736D01*
X164925983Y-87648875D01*
X164922538Y-87675775D01*
X164919750Y-87690455D01*
X164913865Y-87713697D01*
X164907097Y-87795377D01*
X164906517Y-87800886D01*
X164895701Y-87885348D01*
X164896707Y-87909025D01*
X164896396Y-87924520D01*
X164894699Y-87944998D01*
X164901750Y-88030097D01*
X164902061Y-88035071D01*
X164905820Y-88123532D01*
X164910092Y-88143356D01*
X164912451Y-88159237D01*
X164913865Y-88176301D01*
X164913865Y-88176304D01*
X164913866Y-88176305D01*
X164932366Y-88249362D01*
X164935661Y-88262371D01*
X164936669Y-88266676D01*
X164937955Y-88272639D01*
X164956046Y-88356581D01*
X164962333Y-88372226D01*
X164967479Y-88388017D01*
X164970843Y-88401301D01*
X165007875Y-88485727D01*
X165009377Y-88489301D01*
X165044936Y-88577790D01*
X165051979Y-88589229D01*
X165059943Y-88604428D01*
X165060896Y-88606599D01*
X165064076Y-88613849D01*
X165116366Y-88693886D01*
X165118147Y-88696693D01*
X165169931Y-88780796D01*
X165176539Y-88788303D01*
X165187268Y-88802409D01*
X165191021Y-88808153D01*
X165258117Y-88881040D01*
X165259930Y-88883054D01*
X165327437Y-88959756D01*
X165332561Y-88963894D01*
X165345886Y-88976382D01*
X165348216Y-88978913D01*
X165429933Y-89042515D01*
X165512920Y-89109523D01*
X165515685Y-89111067D01*
X165531359Y-89121458D01*
X165531374Y-89121470D01*
X165625162Y-89172225D01*
X165721046Y-89225790D01*
X165721051Y-89225791D01*
X165721252Y-89225904D01*
X165732584Y-89230935D01*
X165735492Y-89231933D01*
X165735497Y-89231936D01*
X165839276Y-89267563D01*
X165945829Y-89305211D01*
X165945836Y-89305212D01*
X165948802Y-89306260D01*
X165955015Y-89307296D01*
X165955019Y-89307298D01*
X166066323Y-89325870D01*
X166066324Y-89325871D01*
X166180799Y-89345500D01*
X166180800Y-89345500D01*
X166416047Y-89345500D01*
X166416049Y-89345500D01*
X166470010Y-89336494D01*
X166479905Y-89335251D01*
X166537541Y-89330346D01*
X166586941Y-89317482D01*
X166597760Y-89315177D01*
X166627221Y-89310261D01*
X166644982Y-89307298D01*
X166699946Y-89288428D01*
X166708949Y-89285714D01*
X166768249Y-89270275D01*
X166811642Y-89250659D01*
X166822443Y-89246374D01*
X166864503Y-89231936D01*
X166918622Y-89202647D01*
X166926530Y-89198726D01*
X166985486Y-89172077D01*
X167022108Y-89147324D01*
X167032515Y-89141011D01*
X167068626Y-89121470D01*
X167119877Y-89081578D01*
X167126589Y-89076706D01*
X167169018Y-89048031D01*
X167183002Y-89038580D01*
X167200122Y-89022171D01*
X167212460Y-89010345D01*
X167222064Y-89002044D01*
X167251784Y-88978913D01*
X167298081Y-88928619D01*
X167303490Y-88923100D01*
X167355118Y-88873621D01*
X167377350Y-88843559D01*
X167385797Y-88833333D01*
X167408979Y-88808153D01*
X167448238Y-88748060D01*
X167452312Y-88742203D01*
X167496879Y-88681947D01*
X167512163Y-88651630D01*
X167519077Y-88639634D01*
X167526691Y-88627979D01*
X167579836Y-88582624D01*
X167649067Y-88573199D01*
X167712403Y-88602700D01*
X167749736Y-88661759D01*
X167754500Y-88695801D01*
X167754500Y-92742283D01*
X167734815Y-92809322D01*
X167682011Y-92855077D01*
X167612853Y-92865021D01*
X167556190Y-92841551D01*
X167522331Y-92816204D01*
X167387483Y-92765909D01*
X167335816Y-92760354D01*
X167331166Y-92759854D01*
X167331165Y-92759853D01*
X167327873Y-92759500D01*
X167324551Y-92759500D01*
X166494383Y-92759500D01*
X166483576Y-92759028D01*
X166480170Y-92758730D01*
X166429999Y-92754340D01*
X166376422Y-92759028D01*
X166365615Y-92759500D01*
X165535439Y-92759500D01*
X165535420Y-92759500D01*
X165532128Y-92759501D01*
X165528848Y-92759853D01*
X165528840Y-92759854D01*
X165472515Y-92765909D01*
X165337669Y-92816204D01*
X165233894Y-92893890D01*
X165168429Y-92918307D01*
X165100156Y-92903455D01*
X165085272Y-92893890D01*
X164982089Y-92816647D01*
X164847371Y-92766400D01*
X164791132Y-92760354D01*
X164784518Y-92760000D01*
X164140000Y-92760000D01*
X164140000Y-93663505D01*
X164035161Y-93615627D01*
X163926473Y-93600000D01*
X163853527Y-93600000D01*
X163744839Y-93615627D01*
X163640000Y-93663505D01*
X163640000Y-92760000D01*
X162995482Y-92760000D01*
X162988867Y-92760354D01*
X162932628Y-92766400D01*
X162797908Y-92816648D01*
X162694726Y-92893890D01*
X162629262Y-92918307D01*
X162560989Y-92903455D01*
X162546111Y-92893894D01*
X162442331Y-92816204D01*
X162307483Y-92765909D01*
X162255816Y-92760354D01*
X162251166Y-92759854D01*
X162251165Y-92759853D01*
X162247873Y-92759500D01*
X162244550Y-92759500D01*
X160455439Y-92759500D01*
X160455420Y-92759500D01*
X160452128Y-92759501D01*
X160448848Y-92759853D01*
X160448840Y-92759854D01*
X160392515Y-92765909D01*
X160257667Y-92816204D01*
X160154310Y-92893577D01*
X160088846Y-92917994D01*
X160020573Y-92903142D01*
X160005690Y-92893577D01*
X159902333Y-92816205D01*
X159902331Y-92816204D01*
X159767483Y-92765909D01*
X159715816Y-92760354D01*
X159711166Y-92759854D01*
X159711165Y-92759853D01*
X159707873Y-92759500D01*
X159704551Y-92759500D01*
X158874383Y-92759500D01*
X158863576Y-92759028D01*
X158860170Y-92758730D01*
X158809999Y-92754340D01*
X158756422Y-92759028D01*
X158745615Y-92759500D01*
X157915439Y-92759500D01*
X157915420Y-92759500D01*
X157912128Y-92759501D01*
X157908848Y-92759853D01*
X157908840Y-92759854D01*
X157852515Y-92765909D01*
X157717667Y-92816204D01*
X157614310Y-92893577D01*
X157548846Y-92917994D01*
X157480573Y-92903142D01*
X157465690Y-92893577D01*
X157362333Y-92816205D01*
X157362331Y-92816204D01*
X157227483Y-92765909D01*
X157175816Y-92760354D01*
X157171166Y-92759854D01*
X157171165Y-92759853D01*
X157167873Y-92759500D01*
X157164551Y-92759500D01*
X156334383Y-92759500D01*
X156323576Y-92759028D01*
X156320170Y-92758730D01*
X156269999Y-92754340D01*
X156222277Y-92758515D01*
X156216420Y-92759028D01*
X156205616Y-92759500D01*
X155858281Y-92759500D01*
X155791242Y-92739815D01*
X155770600Y-92723181D01*
X155296600Y-92249181D01*
X155263115Y-92187858D01*
X155268099Y-92118166D01*
X155309971Y-92062233D01*
X155375435Y-92037816D01*
X155384281Y-92037500D01*
X159547034Y-92037500D01*
X159567601Y-92039770D01*
X159570475Y-92039679D01*
X159570477Y-92039680D01*
X159637918Y-92037561D01*
X159641813Y-92037500D01*
X159665574Y-92037500D01*
X159669476Y-92037500D01*
X159673482Y-92036993D01*
X159685113Y-92036077D01*
X159728943Y-92034701D01*
X159748280Y-92029082D01*
X159767321Y-92025138D01*
X159787293Y-92022616D01*
X159828055Y-92006476D01*
X159839092Y-92002698D01*
X159881191Y-91990468D01*
X159898510Y-91980224D01*
X159915994Y-91971659D01*
X159934703Y-91964253D01*
X159970168Y-91938485D01*
X159979915Y-91932081D01*
X160017656Y-91909763D01*
X160031892Y-91895526D01*
X160046679Y-91882896D01*
X160062967Y-91871063D01*
X160090904Y-91837290D01*
X160098756Y-91828661D01*
X160501967Y-91425450D01*
X160548690Y-91396092D01*
X160707690Y-91340456D01*
X160850890Y-91250477D01*
X160970477Y-91130890D01*
X161060456Y-90987690D01*
X161116313Y-90828059D01*
X161135249Y-90660000D01*
X161116313Y-90491941D01*
X161060456Y-90332310D01*
X160970477Y-90189110D01*
X160850890Y-90069523D01*
X160707690Y-89979544D01*
X160548059Y-89923687D01*
X160548058Y-89923686D01*
X160548056Y-89923686D01*
X160379999Y-89904750D01*
X160254997Y-89918835D01*
X160186175Y-89906781D01*
X160134795Y-89859432D01*
X160117171Y-89791821D01*
X160138897Y-89725416D01*
X160153422Y-89707944D01*
X160220477Y-89640890D01*
X160310456Y-89497690D01*
X160366313Y-89338059D01*
X160385249Y-89170000D01*
X160366313Y-89001941D01*
X160310456Y-88842310D01*
X160220477Y-88699110D01*
X160100890Y-88579523D01*
X159957690Y-88489544D01*
X159798059Y-88433687D01*
X159798058Y-88433686D01*
X159798056Y-88433686D01*
X159630000Y-88414750D01*
X159461943Y-88433686D01*
X159302310Y-88489544D01*
X159159108Y-88579524D01*
X159039524Y-88699108D01*
X158949542Y-88842312D01*
X158893908Y-89001305D01*
X158864548Y-89048031D01*
X158266400Y-89646181D01*
X158205077Y-89679666D01*
X158178719Y-89682500D01*
X121243302Y-89682500D01*
X121176263Y-89662815D01*
X121130508Y-89610011D01*
X121120082Y-89544616D01*
X121135249Y-89410000D01*
X121131467Y-89376436D01*
X121116313Y-89241941D01*
X121060456Y-89082310D01*
X120970477Y-88939110D01*
X120850890Y-88819523D01*
X120707690Y-88729544D01*
X120548059Y-88673687D01*
X120548058Y-88673686D01*
X120548056Y-88673686D01*
X120380000Y-88654750D01*
X120211943Y-88673686D01*
X120052309Y-88729544D01*
X119998279Y-88763494D01*
X119932307Y-88782500D01*
X119874466Y-88782500D01*
X119807427Y-88762815D01*
X119761672Y-88710011D01*
X119750662Y-88651864D01*
X119750500Y-88657873D01*
X119750499Y-87824384D01*
X119750971Y-87813576D01*
X119752081Y-87800886D01*
X119755659Y-87760000D01*
X119750970Y-87706420D01*
X119750499Y-87695613D01*
X119750499Y-87625175D01*
X119770184Y-87558136D01*
X119822988Y-87512381D01*
X119892146Y-87502437D01*
X119940467Y-87520180D01*
X120052310Y-87590456D01*
X120211941Y-87646313D01*
X120380000Y-87665249D01*
X120548059Y-87646313D01*
X120551811Y-87645000D01*
X162014723Y-87645000D01*
X162016332Y-87663400D01*
X162016678Y-87679753D01*
X162015709Y-87701328D01*
X162026444Y-87780576D01*
X162027094Y-87786413D01*
X162033792Y-87862976D01*
X162039461Y-87884132D01*
X162042564Y-87899578D01*
X162045925Y-87924390D01*
X162069573Y-87997170D01*
X162071416Y-88003393D01*
X162090423Y-88074327D01*
X162101135Y-88097298D01*
X162106683Y-88111383D01*
X162115481Y-88138460D01*
X162115482Y-88138463D01*
X162115483Y-88138464D01*
X162120835Y-88148410D01*
X162150128Y-88202847D01*
X162153314Y-88209199D01*
X162182896Y-88272637D01*
X162199406Y-88296215D01*
X162207023Y-88308575D01*
X162222148Y-88336681D01*
X162238018Y-88356581D01*
X162265588Y-88391153D01*
X162270214Y-88397340D01*
X162308403Y-88451878D01*
X162331186Y-88474661D01*
X162340452Y-88485029D01*
X162362493Y-88512667D01*
X162412387Y-88556259D01*
X162418484Y-88561959D01*
X162463123Y-88606598D01*
X162492330Y-88627049D01*
X162502793Y-88635244D01*
X162521551Y-88651632D01*
X162532004Y-88660765D01*
X162585940Y-88692990D01*
X162593435Y-88697843D01*
X162642361Y-88732102D01*
X162652490Y-88736825D01*
X162677799Y-88748628D01*
X162688991Y-88754560D01*
X162725236Y-88776215D01*
X162725239Y-88776216D01*
X162780839Y-88797083D01*
X162789669Y-88800792D01*
X162833999Y-88821464D01*
X162840670Y-88824575D01*
X162881757Y-88835584D01*
X162893235Y-88839266D01*
X162904711Y-88843573D01*
X162935976Y-88855307D01*
X162991024Y-88865296D01*
X163000970Y-88867527D01*
X163052023Y-88881207D01*
X163096133Y-88885065D01*
X163097814Y-88885213D01*
X163109148Y-88886733D01*
X163157453Y-88895500D01*
X163209985Y-88895500D01*
X163220791Y-88895971D01*
X163243447Y-88897954D01*
X163269999Y-88900277D01*
X163269999Y-88900276D01*
X163270000Y-88900277D01*
X163323286Y-88895615D01*
X163325025Y-88895500D01*
X163326155Y-88895500D01*
X163380172Y-88890638D01*
X163380172Y-88890637D01*
X163492665Y-88880797D01*
X163494186Y-88880377D01*
X163494188Y-88880377D01*
X163597997Y-88851726D01*
X163699330Y-88824575D01*
X163699330Y-88824574D01*
X163704379Y-88823222D01*
X163709153Y-88821464D01*
X163711168Y-88820493D01*
X163711170Y-88820493D01*
X163805454Y-88775088D01*
X163897639Y-88732102D01*
X163897647Y-88732095D01*
X163899393Y-88731282D01*
X163913155Y-88723222D01*
X163913973Y-88722829D01*
X163996156Y-88663118D01*
X164076877Y-88606598D01*
X164077748Y-88605726D01*
X164092543Y-88593089D01*
X164096078Y-88590522D01*
X164163237Y-88520277D01*
X164165097Y-88518377D01*
X164231593Y-88451882D01*
X164231593Y-88451881D01*
X164231598Y-88451877D01*
X164234285Y-88448039D01*
X164246232Y-88433471D01*
X164251632Y-88427825D01*
X164303288Y-88349566D01*
X164305082Y-88346929D01*
X164357102Y-88272639D01*
X164360539Y-88265267D01*
X164369434Y-88249362D01*
X164369585Y-88249132D01*
X164375635Y-88239968D01*
X164411114Y-88156958D01*
X164412713Y-88153377D01*
X164449575Y-88074330D01*
X164452572Y-88063143D01*
X164458324Y-88046508D01*
X164464102Y-88032990D01*
X164464101Y-88032990D01*
X164464103Y-88032988D01*
X164483434Y-87948291D01*
X164484533Y-87943863D01*
X164494113Y-87908111D01*
X164506207Y-87862977D01*
X164507516Y-87848005D01*
X164510153Y-87831227D01*
X164514191Y-87813537D01*
X164517934Y-87730183D01*
X164518274Y-87725039D01*
X164525277Y-87645000D01*
X164523667Y-87626608D01*
X164523321Y-87610238D01*
X164524290Y-87588670D01*
X164513549Y-87509385D01*
X164512905Y-87503596D01*
X164509840Y-87468556D01*
X164506208Y-87427027D01*
X164504573Y-87420925D01*
X164500536Y-87405860D01*
X164497434Y-87390414D01*
X164496144Y-87380890D01*
X164494075Y-87365613D01*
X164470421Y-87292816D01*
X164468578Y-87286592D01*
X164455661Y-87238384D01*
X164449575Y-87215670D01*
X164438865Y-87192704D01*
X164433317Y-87178619D01*
X164424517Y-87151535D01*
X164389869Y-87087148D01*
X164386681Y-87080794D01*
X164357102Y-87017362D01*
X164349807Y-87006944D01*
X164340591Y-86993782D01*
X164332975Y-86981423D01*
X164317852Y-86953319D01*
X164274404Y-86898837D01*
X164269785Y-86892661D01*
X164231598Y-86838123D01*
X164208804Y-86815329D01*
X164199546Y-86804969D01*
X164180014Y-86780477D01*
X164177508Y-86777334D01*
X164170967Y-86771619D01*
X164127611Y-86733739D01*
X164121514Y-86728039D01*
X164076878Y-86683402D01*
X164047664Y-86662947D01*
X164037210Y-86654759D01*
X164007996Y-86629235D01*
X164007991Y-86629232D01*
X163954073Y-86597017D01*
X163946550Y-86592145D01*
X163897640Y-86557898D01*
X163868908Y-86544500D01*
X163862201Y-86541372D01*
X163851014Y-86535442D01*
X163814764Y-86513784D01*
X163759171Y-86492921D01*
X163750349Y-86489216D01*
X163699330Y-86465425D01*
X163699328Y-86465424D01*
X163671575Y-86457987D01*
X163658228Y-86454411D01*
X163646762Y-86450732D01*
X163604024Y-86434693D01*
X163560636Y-86426818D01*
X163548964Y-86424700D01*
X163539018Y-86422468D01*
X163487980Y-86408793D01*
X163442175Y-86404785D01*
X163430846Y-86403264D01*
X163382550Y-86394500D01*
X163382547Y-86394500D01*
X163330015Y-86394500D01*
X163319208Y-86394028D01*
X163315485Y-86393702D01*
X163269999Y-86389722D01*
X163216723Y-86394384D01*
X163214970Y-86394500D01*
X163213845Y-86394500D01*
X163211099Y-86394747D01*
X163211078Y-86394748D01*
X163159827Y-86399361D01*
X163047333Y-86409202D01*
X162942002Y-86438273D01*
X162835661Y-86466767D01*
X162830813Y-86468551D01*
X162764451Y-86500509D01*
X162734528Y-86514919D01*
X162700055Y-86530994D01*
X162640634Y-86558703D01*
X162626875Y-86566762D01*
X162626029Y-86567169D01*
X162543830Y-86626889D01*
X162463120Y-86683403D01*
X162462235Y-86684289D01*
X162447467Y-86696901D01*
X162443923Y-86699476D01*
X162376846Y-86769632D01*
X162374903Y-86771619D01*
X162308401Y-86838122D01*
X162305708Y-86841968D01*
X162293776Y-86856517D01*
X162288370Y-86862172D01*
X162236775Y-86940333D01*
X162234866Y-86943141D01*
X162182897Y-87017363D01*
X162179460Y-87024734D01*
X162170571Y-87040629D01*
X162164364Y-87050032D01*
X162128893Y-87133021D01*
X162127260Y-87136676D01*
X162120331Y-87151536D01*
X162090423Y-87215673D01*
X162087426Y-87226856D01*
X162081680Y-87243478D01*
X162075897Y-87257009D01*
X162056576Y-87341659D01*
X162055460Y-87346157D01*
X162033793Y-87427020D01*
X162032483Y-87441993D01*
X162029847Y-87458767D01*
X162025809Y-87476460D01*
X162022066Y-87559777D01*
X162021719Y-87565016D01*
X162016331Y-87626613D01*
X162014723Y-87645000D01*
X120551811Y-87645000D01*
X120707690Y-87590456D01*
X120850890Y-87500477D01*
X120970477Y-87380890D01*
X121060456Y-87237690D01*
X121116313Y-87078059D01*
X121135249Y-86910000D01*
X121116313Y-86741941D01*
X121060456Y-86582310D01*
X120970477Y-86439110D01*
X120850890Y-86319523D01*
X120707690Y-86229544D01*
X120707687Y-86229542D01*
X120548693Y-86173908D01*
X120501967Y-86144548D01*
X120462375Y-86104956D01*
X120449439Y-86088809D01*
X120398152Y-86040647D01*
X120395355Y-86037936D01*
X120378558Y-86021139D01*
X120375796Y-86018377D01*
X120372714Y-86015987D01*
X120372710Y-86015983D01*
X120372604Y-86015901D01*
X120363716Y-86008310D01*
X120357123Y-86002119D01*
X120331767Y-85978307D01*
X120325488Y-85974855D01*
X120314120Y-85968605D01*
X120297858Y-85957922D01*
X120281963Y-85945592D01*
X120241736Y-85928184D01*
X120231248Y-85923046D01*
X120192831Y-85901926D01*
X120173337Y-85896921D01*
X120154933Y-85890620D01*
X120136458Y-85882625D01*
X120093171Y-85875769D01*
X120081736Y-85873401D01*
X120039274Y-85862500D01*
X120039272Y-85862500D01*
X120019142Y-85862500D01*
X119999743Y-85860973D01*
X119979868Y-85857825D01*
X119979867Y-85857825D01*
X119959261Y-85859772D01*
X119936230Y-85861950D01*
X119924561Y-85862500D01*
X119874500Y-85862500D01*
X119807461Y-85842815D01*
X119761706Y-85790011D01*
X119750500Y-85738500D01*
X119750499Y-84325439D01*
X119750499Y-84322128D01*
X119744091Y-84262517D01*
X119693796Y-84127669D01*
X119616421Y-84024310D01*
X119592005Y-83958846D01*
X119606857Y-83890573D01*
X119616422Y-83875689D01*
X119624292Y-83865176D01*
X119693796Y-83772331D01*
X119744091Y-83637483D01*
X119750500Y-83577873D01*
X119750499Y-82795000D01*
X162014723Y-82795000D01*
X162016332Y-82813400D01*
X162016678Y-82829753D01*
X162015709Y-82851328D01*
X162026444Y-82930576D01*
X162027094Y-82936413D01*
X162033792Y-83012976D01*
X162039461Y-83034132D01*
X162042564Y-83049578D01*
X162045925Y-83074390D01*
X162069573Y-83147170D01*
X162071416Y-83153393D01*
X162090423Y-83224327D01*
X162101135Y-83247298D01*
X162106683Y-83261383D01*
X162115481Y-83288460D01*
X162150128Y-83352847D01*
X162153314Y-83359199D01*
X162182896Y-83422637D01*
X162199406Y-83446215D01*
X162207023Y-83458575D01*
X162222148Y-83486681D01*
X162265588Y-83541153D01*
X162270214Y-83547340D01*
X162308403Y-83601878D01*
X162331186Y-83624661D01*
X162340452Y-83635029D01*
X162359982Y-83659519D01*
X162362493Y-83662667D01*
X162412387Y-83706259D01*
X162418484Y-83711959D01*
X162463123Y-83756598D01*
X162492330Y-83777049D01*
X162502793Y-83785244D01*
X162520440Y-83800662D01*
X162532004Y-83810765D01*
X162585940Y-83842990D01*
X162593435Y-83847843D01*
X162642361Y-83882102D01*
X162649114Y-83885251D01*
X162677799Y-83898628D01*
X162688991Y-83904560D01*
X162725236Y-83926215D01*
X162725239Y-83926216D01*
X162780839Y-83947083D01*
X162789669Y-83950792D01*
X162833999Y-83971464D01*
X162840670Y-83974575D01*
X162881757Y-83985584D01*
X162893235Y-83989266D01*
X162900363Y-83991941D01*
X162935976Y-84005307D01*
X162991024Y-84015296D01*
X163000970Y-84017527D01*
X163052023Y-84031207D01*
X163096133Y-84035065D01*
X163097814Y-84035213D01*
X163109148Y-84036733D01*
X163157453Y-84045500D01*
X163209985Y-84045500D01*
X163220791Y-84045971D01*
X163243447Y-84047954D01*
X163269999Y-84050277D01*
X163269999Y-84050276D01*
X163270000Y-84050277D01*
X163323286Y-84045615D01*
X163325025Y-84045500D01*
X163326155Y-84045500D01*
X163380172Y-84040638D01*
X163380172Y-84040637D01*
X163492665Y-84030797D01*
X163494186Y-84030377D01*
X163494188Y-84030377D01*
X163597997Y-84001726D01*
X163699330Y-83974575D01*
X163699330Y-83974574D01*
X163704379Y-83973222D01*
X163709153Y-83971464D01*
X163711168Y-83970493D01*
X163711170Y-83970493D01*
X163805454Y-83925088D01*
X163897639Y-83882102D01*
X163897647Y-83882095D01*
X163899393Y-83881282D01*
X163913155Y-83873222D01*
X163913973Y-83872829D01*
X163996156Y-83813118D01*
X164076877Y-83756598D01*
X164077748Y-83755726D01*
X164092543Y-83743089D01*
X164096078Y-83740522D01*
X164163237Y-83670277D01*
X164165097Y-83668377D01*
X164231593Y-83601882D01*
X164231593Y-83601881D01*
X164231598Y-83601877D01*
X164234285Y-83598039D01*
X164246232Y-83583471D01*
X164251632Y-83577825D01*
X164303288Y-83499566D01*
X164305082Y-83496929D01*
X164357102Y-83422639D01*
X164360539Y-83415267D01*
X164369434Y-83399362D01*
X164373255Y-83393573D01*
X164375635Y-83389968D01*
X164411114Y-83306958D01*
X164412713Y-83303377D01*
X164449575Y-83224330D01*
X164452572Y-83213143D01*
X164458324Y-83196508D01*
X164464102Y-83182990D01*
X164464101Y-83182990D01*
X164464103Y-83182988D01*
X164483434Y-83098291D01*
X164484533Y-83093863D01*
X164489752Y-83074387D01*
X164506207Y-83012977D01*
X164507516Y-82998005D01*
X164510153Y-82981227D01*
X164514191Y-82963537D01*
X164517934Y-82880183D01*
X164518274Y-82875039D01*
X164525277Y-82795000D01*
X164523667Y-82776608D01*
X164523321Y-82760238D01*
X164524290Y-82738670D01*
X164513549Y-82659385D01*
X164512905Y-82653596D01*
X164507517Y-82591993D01*
X164506208Y-82577027D01*
X164506206Y-82577020D01*
X164500536Y-82555860D01*
X164497434Y-82540414D01*
X164494075Y-82515614D01*
X164487376Y-82494998D01*
X164470421Y-82442816D01*
X164468578Y-82436592D01*
X164449575Y-82365671D01*
X164438867Y-82342708D01*
X164433317Y-82328619D01*
X164424517Y-82301535D01*
X164389869Y-82237148D01*
X164386681Y-82230794D01*
X164357102Y-82167362D01*
X164340591Y-82143782D01*
X164332975Y-82131423D01*
X164317852Y-82103319D01*
X164274404Y-82048837D01*
X164269785Y-82042661D01*
X164231598Y-81988123D01*
X164208804Y-81965329D01*
X164199546Y-81954969D01*
X164177506Y-81927332D01*
X164127611Y-81883739D01*
X164121514Y-81878039D01*
X164076878Y-81833402D01*
X164047664Y-81812947D01*
X164037210Y-81804759D01*
X164007996Y-81779235D01*
X164007323Y-81778833D01*
X163954073Y-81747017D01*
X163946550Y-81742145D01*
X163897640Y-81707898D01*
X163863343Y-81691905D01*
X163862201Y-81691372D01*
X163851014Y-81685442D01*
X163814764Y-81663784D01*
X163759171Y-81642921D01*
X163750349Y-81639216D01*
X163699330Y-81615425D01*
X163699328Y-81615424D01*
X163666657Y-81606670D01*
X163658228Y-81604411D01*
X163646762Y-81600732D01*
X163604024Y-81584693D01*
X163560636Y-81576818D01*
X163548964Y-81574700D01*
X163539018Y-81572468D01*
X163487980Y-81558793D01*
X163442175Y-81554785D01*
X163430846Y-81553264D01*
X163382550Y-81544500D01*
X163382547Y-81544500D01*
X163330015Y-81544500D01*
X163319208Y-81544028D01*
X163315485Y-81543702D01*
X163269999Y-81539722D01*
X163216723Y-81544384D01*
X163214970Y-81544500D01*
X163213845Y-81544500D01*
X163211099Y-81544747D01*
X163211078Y-81544748D01*
X163159827Y-81549361D01*
X163047333Y-81559202D01*
X162942002Y-81588273D01*
X162835661Y-81616767D01*
X162830813Y-81618551D01*
X162764451Y-81650509D01*
X162734528Y-81664919D01*
X162725541Y-81669110D01*
X162640634Y-81708703D01*
X162626875Y-81716762D01*
X162626029Y-81717169D01*
X162543830Y-81776889D01*
X162463120Y-81833403D01*
X162462235Y-81834289D01*
X162447467Y-81846901D01*
X162443923Y-81849476D01*
X162376846Y-81919632D01*
X162374903Y-81921619D01*
X162308401Y-81988122D01*
X162305708Y-81991968D01*
X162293776Y-82006517D01*
X162288370Y-82012172D01*
X162236775Y-82090333D01*
X162234866Y-82093141D01*
X162182897Y-82167363D01*
X162179460Y-82174734D01*
X162170571Y-82190629D01*
X162164364Y-82200032D01*
X162128893Y-82283021D01*
X162127260Y-82286676D01*
X162120331Y-82301536D01*
X162090423Y-82365673D01*
X162087426Y-82376856D01*
X162081680Y-82393478D01*
X162075897Y-82407009D01*
X162056576Y-82491659D01*
X162055460Y-82496157D01*
X162033793Y-82577020D01*
X162032483Y-82591993D01*
X162029847Y-82608767D01*
X162025809Y-82626460D01*
X162022066Y-82709777D01*
X162021719Y-82715016D01*
X162016587Y-82773687D01*
X162014723Y-82795000D01*
X119750499Y-82795000D01*
X119750499Y-82744384D01*
X119750971Y-82733576D01*
X119755659Y-82679999D01*
X119750971Y-82626422D01*
X119750499Y-82615613D01*
X119750499Y-81785439D01*
X119750499Y-81785438D01*
X119750499Y-81782128D01*
X119744091Y-81722517D01*
X119693796Y-81587669D01*
X119607546Y-81472454D01*
X119492331Y-81386204D01*
X119357483Y-81335909D01*
X119297873Y-81329500D01*
X119294551Y-81329500D01*
X118464380Y-81329500D01*
X118453573Y-81329028D01*
X118448960Y-81328624D01*
X118399999Y-81324340D01*
X118346425Y-81329028D01*
X118335617Y-81329500D01*
X115705439Y-81329500D01*
X115705420Y-81329500D01*
X115702128Y-81329501D01*
X115698848Y-81329853D01*
X115698840Y-81329854D01*
X115642515Y-81335909D01*
X115507669Y-81386204D01*
X115392454Y-81472454D01*
X115306204Y-81587668D01*
X115255909Y-81722516D01*
X115253522Y-81744722D01*
X115249500Y-81782127D01*
X115249500Y-81785448D01*
X115249500Y-81785449D01*
X115249500Y-83574560D01*
X115249500Y-83574578D01*
X115249501Y-83577872D01*
X115249853Y-83581152D01*
X115249854Y-83581159D01*
X115255909Y-83637484D01*
X115306204Y-83772332D01*
X115383577Y-83875690D01*
X115407994Y-83941154D01*
X115393142Y-84009427D01*
X115383577Y-84024310D01*
X115306205Y-84127666D01*
X115255909Y-84262516D01*
X115253462Y-84285280D01*
X115249500Y-84322127D01*
X115249500Y-85083663D01*
X115249501Y-85738500D01*
X115229816Y-85805539D01*
X115177013Y-85851294D01*
X115125501Y-85862500D01*
X111691280Y-85862500D01*
X111624241Y-85842815D01*
X111603599Y-85826181D01*
X110794658Y-85017239D01*
X110777345Y-84995530D01*
X110726901Y-84915249D01*
X110710477Y-84889110D01*
X110590890Y-84769523D01*
X110447690Y-84679544D01*
X110288059Y-84623687D01*
X110288058Y-84623686D01*
X110288056Y-84623686D01*
X110120000Y-84604750D01*
X109951943Y-84623686D01*
X109824678Y-84668218D01*
X109754899Y-84671779D01*
X109694272Y-84637050D01*
X109662045Y-84575057D01*
X109659782Y-84554956D01*
X109659756Y-84554151D01*
X109659700Y-84550387D01*
X109659700Y-84526614D01*
X109659700Y-84522724D01*
X109659195Y-84518726D01*
X109658277Y-84507068D01*
X109657668Y-84487689D01*
X109656901Y-84463258D01*
X109651283Y-84443920D01*
X109647339Y-84424879D01*
X109644816Y-84404907D01*
X109628680Y-84364152D01*
X109624904Y-84353122D01*
X109612669Y-84311009D01*
X109612667Y-84311006D01*
X109608335Y-84296094D01*
X109608535Y-84226225D01*
X109646478Y-84167555D01*
X109710116Y-84138712D01*
X109727412Y-84137500D01*
X111972307Y-84137500D01*
X112038278Y-84156505D01*
X112092310Y-84190456D01*
X112251941Y-84246313D01*
X112420000Y-84265249D01*
X112588059Y-84246313D01*
X112747690Y-84190456D01*
X112890890Y-84100477D01*
X113010477Y-83980890D01*
X113100456Y-83837690D01*
X113156313Y-83678059D01*
X113175249Y-83510000D01*
X113156313Y-83341941D01*
X113100456Y-83182310D01*
X113010477Y-83039110D01*
X112890890Y-82919523D01*
X112747690Y-82829544D01*
X112588059Y-82773687D01*
X112588058Y-82773686D01*
X112588056Y-82773686D01*
X112419999Y-82754750D01*
X112251943Y-82773686D01*
X112092309Y-82829544D01*
X112038279Y-82863494D01*
X111972307Y-82882500D01*
X108391281Y-82882500D01*
X108324242Y-82862815D01*
X108303600Y-82846181D01*
X107475451Y-82018032D01*
X107446090Y-81971305D01*
X107390456Y-81812310D01*
X107300477Y-81669110D01*
X107180890Y-81549523D01*
X107037690Y-81459544D01*
X106878059Y-81403687D01*
X106878058Y-81403686D01*
X106878056Y-81403686D01*
X106710000Y-81384750D01*
X106541943Y-81403686D01*
X106382310Y-81459544D01*
X106239108Y-81549524D01*
X106119524Y-81669108D01*
X106029544Y-81812310D01*
X105973686Y-81971943D01*
X105954750Y-82140000D01*
X105973686Y-82308056D01*
X105973686Y-82308058D01*
X105973687Y-82308059D01*
X106029544Y-82467690D01*
X106119523Y-82610890D01*
X106239110Y-82730477D01*
X106382310Y-82820456D01*
X106541306Y-82876091D01*
X106588032Y-82905451D01*
X107003300Y-83320719D01*
X107036785Y-83382042D01*
X107031801Y-83451734D01*
X106989929Y-83507667D01*
X106927287Y-83531850D01*
X106926229Y-83531950D01*
X106914561Y-83532500D01*
X106827693Y-83532500D01*
X106761721Y-83513494D01*
X106755770Y-83509755D01*
X106707690Y-83479544D01*
X106548059Y-83423687D01*
X106548058Y-83423686D01*
X106548056Y-83423686D01*
X106380000Y-83404750D01*
X106211943Y-83423686D01*
X106052310Y-83479544D01*
X105909108Y-83569524D01*
X105789524Y-83689108D01*
X105699544Y-83832310D01*
X105643686Y-83991943D01*
X105624750Y-84160000D01*
X105643686Y-84328056D01*
X105643686Y-84328058D01*
X105643687Y-84328059D01*
X105699544Y-84487690D01*
X105789523Y-84630890D01*
X105909110Y-84750477D01*
X106052310Y-84840456D01*
X106211941Y-84896313D01*
X106249764Y-84900574D01*
X106349207Y-84911780D01*
X106379612Y-84924556D01*
X106403282Y-84912859D01*
X106410792Y-84911780D01*
X106548059Y-84896313D01*
X106576426Y-84886387D01*
X106660332Y-84857026D01*
X106730111Y-84853465D01*
X106788968Y-84886387D01*
X107823399Y-85920818D01*
X107856884Y-85982141D01*
X107851900Y-86051833D01*
X107810028Y-86107766D01*
X107744564Y-86132183D01*
X107735718Y-86132499D01*
X107248935Y-86132499D01*
X107181896Y-86112814D01*
X107136141Y-86060010D01*
X107125715Y-85994614D01*
X107126058Y-85991575D01*
X107135249Y-85910000D01*
X107134339Y-85901928D01*
X107121729Y-85790011D01*
X107116313Y-85741941D01*
X107060456Y-85582310D01*
X106970477Y-85439110D01*
X106850890Y-85319523D01*
X106707690Y-85229544D01*
X106548059Y-85173687D01*
X106548058Y-85173686D01*
X106548056Y-85173686D01*
X106410792Y-85158220D01*
X106380386Y-85145443D01*
X106356716Y-85157141D01*
X106349207Y-85158220D01*
X106211943Y-85173686D01*
X106052310Y-85229544D01*
X105909108Y-85319524D01*
X105789524Y-85439108D01*
X105699544Y-85582310D01*
X105643686Y-85741943D01*
X105624750Y-85909999D01*
X105632447Y-85978306D01*
X105633942Y-85991575D01*
X105634285Y-85994614D01*
X105622231Y-86063436D01*
X105574882Y-86114816D01*
X105511065Y-86132499D01*
X104791280Y-86132499D01*
X104724241Y-86112814D01*
X104703599Y-86096180D01*
X102842375Y-84234956D01*
X102829439Y-84218809D01*
X102778152Y-84170647D01*
X102775355Y-84167936D01*
X102758558Y-84151139D01*
X102755796Y-84148377D01*
X102752714Y-84145987D01*
X102752710Y-84145983D01*
X102752604Y-84145901D01*
X102743716Y-84138310D01*
X102742853Y-84137500D01*
X102711767Y-84108307D01*
X102709465Y-84107041D01*
X102694120Y-84098605D01*
X102677858Y-84087922D01*
X102661963Y-84075592D01*
X102621736Y-84058184D01*
X102611248Y-84053046D01*
X102572831Y-84031926D01*
X102553337Y-84026921D01*
X102534933Y-84020620D01*
X102516458Y-84012625D01*
X102473171Y-84005769D01*
X102461736Y-84003401D01*
X102419274Y-83992500D01*
X102419272Y-83992500D01*
X102399142Y-83992500D01*
X102379743Y-83990973D01*
X102359868Y-83987825D01*
X102359867Y-83987825D01*
X102344624Y-83989266D01*
X102316230Y-83991950D01*
X102304561Y-83992500D01*
X101653826Y-83992500D01*
X101586787Y-83972815D01*
X101552251Y-83939623D01*
X101500123Y-83865176D01*
X101418495Y-83748599D01*
X101251401Y-83581505D01*
X101057830Y-83445965D01*
X100843663Y-83346097D01*
X100748950Y-83320719D01*
X100615407Y-83284936D01*
X100379999Y-83264340D01*
X100144592Y-83284936D01*
X99916336Y-83346097D01*
X99702170Y-83445965D01*
X99508598Y-83581505D01*
X99341505Y-83748598D01*
X99205965Y-83942170D01*
X99106097Y-84156336D01*
X99044936Y-84384592D01*
X99024340Y-84620000D01*
X99044936Y-84855407D01*
X99082482Y-84995530D01*
X99106097Y-85083663D01*
X99205965Y-85297830D01*
X99341505Y-85491401D01*
X99508599Y-85658495D01*
X99694160Y-85788426D01*
X99737783Y-85843002D01*
X99744976Y-85912501D01*
X99713454Y-85974855D01*
X99694160Y-85991574D01*
X99528221Y-86107766D01*
X99508595Y-86121508D01*
X99341505Y-86288598D01*
X99205965Y-86482170D01*
X99106097Y-86696336D01*
X99044936Y-86924592D01*
X99024340Y-87159999D01*
X99044936Y-87395407D01*
X99075655Y-87510050D01*
X99106097Y-87623663D01*
X99205965Y-87837830D01*
X99341505Y-88031401D01*
X99508599Y-88198495D01*
X99694160Y-88328426D01*
X99737783Y-88383002D01*
X99744976Y-88452501D01*
X99713454Y-88514855D01*
X99694158Y-88531575D01*
X99513788Y-88657872D01*
X99508595Y-88661508D01*
X99341505Y-88828598D01*
X99205965Y-89022170D01*
X99106097Y-89236336D01*
X99044936Y-89464592D01*
X99024340Y-89700000D01*
X99044936Y-89935407D01*
X99080873Y-90069524D01*
X99106097Y-90163663D01*
X99205965Y-90377830D01*
X99341505Y-90571401D01*
X99508599Y-90738495D01*
X99694160Y-90868426D01*
X99737783Y-90923002D01*
X99744976Y-90992501D01*
X99713454Y-91054855D01*
X99694159Y-91071575D01*
X99508595Y-91201508D01*
X99341505Y-91368598D01*
X99205965Y-91562170D01*
X99106097Y-91776336D01*
X99044936Y-92004592D01*
X99024340Y-92239999D01*
X99044936Y-92475407D01*
X99059803Y-92530890D01*
X99106097Y-92703663D01*
X99205965Y-92917830D01*
X99341505Y-93111401D01*
X99341508Y-93111404D01*
X99463430Y-93233326D01*
X99496915Y-93294649D01*
X99491931Y-93364341D01*
X99450059Y-93420274D01*
X99419083Y-93437189D01*
X99287669Y-93486204D01*
X99172454Y-93572454D01*
X99086204Y-93687668D01*
X99035910Y-93822515D01*
X99035909Y-93822517D01*
X99029500Y-93882127D01*
X99029500Y-93885448D01*
X99029500Y-93885449D01*
X99029500Y-95674560D01*
X99029500Y-95674578D01*
X99029501Y-95677872D01*
X99035909Y-95737483D01*
X99086204Y-95872331D01*
X99172454Y-95987546D01*
X99287669Y-96073796D01*
X99422517Y-96124091D01*
X99482127Y-96130500D01*
X101277872Y-96130499D01*
X101337483Y-96124091D01*
X101472331Y-96073796D01*
X101587546Y-95987546D01*
X101673796Y-95872331D01*
X101724091Y-95737483D01*
X101730500Y-95677873D01*
X101730499Y-93882128D01*
X101724091Y-93822517D01*
X101673796Y-93687669D01*
X101587546Y-93572454D01*
X101472331Y-93486204D01*
X101410898Y-93463291D01*
X101340916Y-93437189D01*
X101284983Y-93395317D01*
X101260566Y-93329853D01*
X101275418Y-93261580D01*
X101296563Y-93233332D01*
X101418495Y-93111401D01*
X101554035Y-92917830D01*
X101653903Y-92703663D01*
X101715063Y-92475408D01*
X101735659Y-92240000D01*
X101715063Y-92004592D01*
X101653903Y-91776337D01*
X101554035Y-91562171D01*
X101418495Y-91368599D01*
X101251401Y-91201505D01*
X101065839Y-91071573D01*
X101022215Y-91016997D01*
X101015023Y-90947498D01*
X101046545Y-90885144D01*
X101065831Y-90868432D01*
X101251401Y-90738495D01*
X101418495Y-90571401D01*
X101553422Y-90378704D01*
X101607999Y-90335080D01*
X101651101Y-90325889D01*
X101688943Y-90324701D01*
X101708280Y-90319082D01*
X101727321Y-90315138D01*
X101747293Y-90312616D01*
X101788055Y-90296476D01*
X101799092Y-90292698D01*
X101841191Y-90280468D01*
X101858510Y-90270224D01*
X101875994Y-90261659D01*
X101894703Y-90254253D01*
X101930168Y-90228485D01*
X101939915Y-90222081D01*
X101977656Y-90199763D01*
X101991892Y-90185526D01*
X102006679Y-90172896D01*
X102022967Y-90161063D01*
X102050904Y-90127290D01*
X102058756Y-90118661D01*
X103753599Y-88423819D01*
X103814923Y-88390334D01*
X103841281Y-88387500D01*
X105261403Y-88387500D01*
X105328442Y-88407185D01*
X105374197Y-88459989D01*
X105384623Y-88497616D01*
X105393686Y-88578056D01*
X105393686Y-88578058D01*
X105393687Y-88578059D01*
X105449544Y-88737690D01*
X105539523Y-88880890D01*
X105659110Y-89000477D01*
X105802310Y-89090456D01*
X105961941Y-89146313D01*
X106073980Y-89158936D01*
X106129999Y-89165249D01*
X106129999Y-89165248D01*
X106130000Y-89165249D01*
X106298059Y-89146313D01*
X106457690Y-89090456D01*
X106544261Y-89036059D01*
X106611496Y-89017059D01*
X106678331Y-89037426D01*
X106723545Y-89090694D01*
X106726408Y-89097705D01*
X106738204Y-89129332D01*
X106824454Y-89244547D01*
X106939669Y-89330797D01*
X107074517Y-89381092D01*
X107134127Y-89387501D01*
X107534920Y-89387500D01*
X107601958Y-89407184D01*
X107647713Y-89459988D01*
X107657657Y-89529147D01*
X107628632Y-89592702D01*
X107622600Y-89599181D01*
X107571413Y-89650368D01*
X107549705Y-89667680D01*
X107409109Y-89756023D01*
X107289524Y-89875608D01*
X107199544Y-90018810D01*
X107143686Y-90178443D01*
X107142544Y-90188583D01*
X107115478Y-90252997D01*
X107057883Y-90292552D01*
X107019324Y-90298700D01*
X106457479Y-90298700D01*
X106390440Y-90279015D01*
X106369798Y-90262381D01*
X106145449Y-90038032D01*
X106116088Y-89991305D01*
X106096529Y-89935408D01*
X106060454Y-89832310D01*
X105970475Y-89689110D01*
X105850888Y-89569523D01*
X105707688Y-89479544D01*
X105548057Y-89423687D01*
X105548056Y-89423686D01*
X105548054Y-89423686D01*
X105379998Y-89404750D01*
X105211941Y-89423686D01*
X105052308Y-89479544D01*
X104909106Y-89569524D01*
X104789522Y-89689108D01*
X104699542Y-89832310D01*
X104643684Y-89991943D01*
X104624748Y-90160000D01*
X104643684Y-90328056D01*
X104643684Y-90328058D01*
X104643685Y-90328059D01*
X104699542Y-90487690D01*
X104789521Y-90630890D01*
X104909108Y-90750477D01*
X105052308Y-90840456D01*
X105211304Y-90896091D01*
X105258030Y-90925451D01*
X105482379Y-91149800D01*
X105515864Y-91211123D01*
X105518698Y-91237481D01*
X105518698Y-91498323D01*
X105499013Y-91565362D01*
X105446209Y-91611117D01*
X105377051Y-91621061D01*
X105313495Y-91592036D01*
X105308269Y-91587169D01*
X105163699Y-91497997D01*
X105002707Y-91444650D01*
X104906477Y-91434819D01*
X104906458Y-91434818D01*
X104903345Y-91434500D01*
X104900196Y-91434500D01*
X104359805Y-91434500D01*
X104359785Y-91434500D01*
X104356656Y-91434501D01*
X104353524Y-91434820D01*
X104353522Y-91434821D01*
X104257292Y-91444650D01*
X104096300Y-91497997D01*
X103951955Y-91587031D01*
X103832031Y-91706955D01*
X103742997Y-91851300D01*
X103689650Y-92012292D01*
X103679819Y-92108522D01*
X103679817Y-92108542D01*
X103679500Y-92111655D01*
X103679500Y-92114802D01*
X103679500Y-92114803D01*
X103679500Y-92705194D01*
X103679500Y-92705213D01*
X103679501Y-92708344D01*
X103679820Y-92711476D01*
X103679821Y-92711477D01*
X103689650Y-92807707D01*
X103742997Y-92968699D01*
X103832031Y-93113044D01*
X103951955Y-93232968D01*
X104096300Y-93322002D01*
X104257292Y-93375349D01*
X104353522Y-93385180D01*
X104353523Y-93385180D01*
X104356655Y-93385500D01*
X104903344Y-93385499D01*
X105002708Y-93375349D01*
X105163697Y-93322003D01*
X105208045Y-93294649D01*
X105261657Y-93261580D01*
X105308044Y-93232968D01*
X105317317Y-93223694D01*
X105378639Y-93190208D01*
X105448331Y-93195191D01*
X105492683Y-93223695D01*
X105501957Y-93232969D01*
X105646300Y-93322002D01*
X105807292Y-93375349D01*
X105903522Y-93385180D01*
X105903523Y-93385180D01*
X105906655Y-93385500D01*
X106453344Y-93385499D01*
X106552708Y-93375349D01*
X106713697Y-93322003D01*
X106758045Y-93294649D01*
X106858044Y-93232968D01*
X106977968Y-93113044D01*
X107067002Y-92968699D01*
X107083859Y-92917830D01*
X107120349Y-92807708D01*
X107130500Y-92708345D01*
X107130499Y-92111656D01*
X107120349Y-92012292D01*
X107067003Y-91851303D01*
X107067002Y-91851302D01*
X107067002Y-91851300D01*
X107000076Y-91742797D01*
X106981635Y-91675405D01*
X107002557Y-91608741D01*
X107056199Y-91563972D01*
X107105614Y-91553700D01*
X108700834Y-91553700D01*
X108721401Y-91555970D01*
X108724275Y-91555879D01*
X108724277Y-91555880D01*
X108791718Y-91553761D01*
X108795613Y-91553700D01*
X108799519Y-91553700D01*
X108866558Y-91573385D01*
X108912313Y-91626189D01*
X108922257Y-91695347D01*
X108893232Y-91758903D01*
X108887200Y-91765381D01*
X101684954Y-98967625D01*
X101668806Y-98980563D01*
X101620646Y-99031847D01*
X101617941Y-99034639D01*
X101598377Y-99054204D01*
X101596003Y-99057264D01*
X101595984Y-99057286D01*
X101595879Y-99057423D01*
X101588317Y-99066274D01*
X101558306Y-99098233D01*
X101548606Y-99115877D01*
X101537928Y-99132133D01*
X101525592Y-99148036D01*
X101508185Y-99188262D01*
X101503047Y-99198750D01*
X101481927Y-99237166D01*
X101476919Y-99256670D01*
X101470619Y-99275069D01*
X101462625Y-99293542D01*
X101455769Y-99336831D01*
X101453401Y-99348267D01*
X101442500Y-99390727D01*
X101442500Y-99410858D01*
X101440973Y-99430256D01*
X101437825Y-99450131D01*
X101441950Y-99493767D01*
X101442500Y-99505437D01*
X101442500Y-102186174D01*
X101422815Y-102253213D01*
X101389623Y-102287749D01*
X101198598Y-102421505D01*
X101031505Y-102588598D01*
X100895965Y-102782170D01*
X100796097Y-102996336D01*
X100734936Y-103224592D01*
X100714340Y-103460000D01*
X100734936Y-103695407D01*
X100738793Y-103709800D01*
X100796097Y-103923663D01*
X100895965Y-104137830D01*
X101031505Y-104331401D01*
X101198599Y-104498495D01*
X101392170Y-104634035D01*
X101606337Y-104733903D01*
X101834591Y-104795063D01*
X101834592Y-104795063D01*
X102069999Y-104815659D01*
X102069999Y-104815658D01*
X102070000Y-104815659D01*
X102305408Y-104795063D01*
X102533663Y-104733903D01*
X102747830Y-104634035D01*
X102941401Y-104498495D01*
X103108495Y-104331401D01*
X103238426Y-104145839D01*
X103293002Y-104102216D01*
X103362500Y-104095022D01*
X103424855Y-104126545D01*
X103441571Y-104145837D01*
X103571505Y-104331401D01*
X103738599Y-104498495D01*
X103932170Y-104634035D01*
X104146337Y-104733903D01*
X104374592Y-104795063D01*
X104610000Y-104815659D01*
X104845408Y-104795063D01*
X105073663Y-104733903D01*
X105287830Y-104634035D01*
X105481401Y-104498495D01*
X105648495Y-104331401D01*
X105778426Y-104145839D01*
X105833002Y-104102216D01*
X105902500Y-104095022D01*
X105964855Y-104126545D01*
X105981571Y-104145837D01*
X106111505Y-104331401D01*
X106278599Y-104498495D01*
X106472170Y-104634035D01*
X106686337Y-104733903D01*
X106914591Y-104795063D01*
X106914592Y-104795063D01*
X107149999Y-104815659D01*
X107149999Y-104815658D01*
X107150000Y-104815659D01*
X107385408Y-104795063D01*
X107613663Y-104733903D01*
X107827830Y-104634035D01*
X108021401Y-104498495D01*
X108188495Y-104331401D01*
X108318426Y-104145839D01*
X108373002Y-104102216D01*
X108442500Y-104095022D01*
X108504855Y-104126545D01*
X108521571Y-104145837D01*
X108651505Y-104331401D01*
X108818599Y-104498495D01*
X109012170Y-104634035D01*
X109226337Y-104733903D01*
X109454592Y-104795063D01*
X109690000Y-104815659D01*
X109925408Y-104795063D01*
X110153663Y-104733903D01*
X110367830Y-104634035D01*
X110561401Y-104498495D01*
X110728495Y-104331401D01*
X110858426Y-104145839D01*
X110913002Y-104102216D01*
X110982500Y-104095022D01*
X111044855Y-104126545D01*
X111061571Y-104145837D01*
X111191505Y-104331401D01*
X111358599Y-104498495D01*
X111552170Y-104634035D01*
X111766337Y-104733903D01*
X111994592Y-104795063D01*
X112230000Y-104815659D01*
X112465408Y-104795063D01*
X112693663Y-104733903D01*
X112907830Y-104634035D01*
X113101401Y-104498495D01*
X113223329Y-104376566D01*
X113284648Y-104343084D01*
X113354340Y-104348068D01*
X113410274Y-104389939D01*
X113427189Y-104420916D01*
X113476204Y-104552331D01*
X113562454Y-104667546D01*
X113677669Y-104753796D01*
X113812517Y-104804091D01*
X113872127Y-104810500D01*
X115667872Y-104810499D01*
X115727483Y-104804091D01*
X115862331Y-104753796D01*
X115977546Y-104667546D01*
X116063796Y-104552331D01*
X116114091Y-104417483D01*
X116120500Y-104357873D01*
X116120499Y-102562128D01*
X116114091Y-102502517D01*
X116063796Y-102367669D01*
X115977546Y-102252454D01*
X115862331Y-102166204D01*
X115727483Y-102115909D01*
X115667873Y-102109500D01*
X115664550Y-102109500D01*
X113875439Y-102109500D01*
X113875420Y-102109500D01*
X113872128Y-102109501D01*
X113868848Y-102109853D01*
X113868840Y-102109854D01*
X113812515Y-102115909D01*
X113677669Y-102166204D01*
X113562454Y-102252454D01*
X113476204Y-102367669D01*
X113427189Y-102499083D01*
X113385317Y-102555016D01*
X113319852Y-102579433D01*
X113251580Y-102564581D01*
X113223326Y-102543430D01*
X113101404Y-102421508D01*
X113101401Y-102421505D01*
X112907830Y-102285965D01*
X112693663Y-102186097D01*
X112632501Y-102169709D01*
X112465407Y-102124936D01*
X112230000Y-102104340D01*
X111994592Y-102124936D01*
X111766336Y-102186097D01*
X111552170Y-102285965D01*
X111358598Y-102421505D01*
X111191505Y-102588598D01*
X111061575Y-102774159D01*
X111006998Y-102817784D01*
X110937500Y-102824978D01*
X110875145Y-102793455D01*
X110858425Y-102774159D01*
X110728494Y-102588598D01*
X110561404Y-102421508D01*
X110561401Y-102421505D01*
X110367830Y-102285965D01*
X110153663Y-102186097D01*
X110092502Y-102169709D01*
X109925407Y-102124936D01*
X109690000Y-102104340D01*
X109454592Y-102124936D01*
X109226336Y-102186097D01*
X109012170Y-102285965D01*
X108818598Y-102421505D01*
X108651508Y-102588595D01*
X108521574Y-102774160D01*
X108466997Y-102817785D01*
X108397498Y-102824977D01*
X108335144Y-102793455D01*
X108318429Y-102774164D01*
X108188495Y-102588599D01*
X108021401Y-102421505D01*
X107827830Y-102285965D01*
X107613663Y-102186097D01*
X107552501Y-102169709D01*
X107385407Y-102124936D01*
X107149999Y-102104340D01*
X106914592Y-102124936D01*
X106686336Y-102186097D01*
X106472170Y-102285965D01*
X106278598Y-102421505D01*
X106111505Y-102588598D01*
X105981575Y-102774159D01*
X105926998Y-102817784D01*
X105857500Y-102824978D01*
X105795145Y-102793455D01*
X105778425Y-102774159D01*
X105648494Y-102588598D01*
X105481404Y-102421508D01*
X105481401Y-102421505D01*
X105287830Y-102285965D01*
X105073663Y-102186097D01*
X105012502Y-102169709D01*
X104845407Y-102124936D01*
X104609999Y-102104340D01*
X104374592Y-102124936D01*
X104146336Y-102186097D01*
X103932170Y-102285965D01*
X103738598Y-102421505D01*
X103571505Y-102588598D01*
X103441575Y-102774159D01*
X103386998Y-102817784D01*
X103317500Y-102824978D01*
X103255145Y-102793455D01*
X103238425Y-102774159D01*
X103108494Y-102588598D01*
X102941404Y-102421508D01*
X102941401Y-102421505D01*
X102750375Y-102287747D01*
X102706751Y-102233171D01*
X102697500Y-102186173D01*
X102697500Y-99781280D01*
X102717185Y-99714241D01*
X102733814Y-99693604D01*
X106340210Y-96087207D01*
X106401531Y-96053724D01*
X106471223Y-96058708D01*
X106527156Y-96100580D01*
X106532877Y-96108909D01*
X106609523Y-96230890D01*
X106729110Y-96350477D01*
X106872310Y-96440456D01*
X107031941Y-96496313D01*
X107200000Y-96515249D01*
X107368059Y-96496313D01*
X107527690Y-96440456D01*
X107670890Y-96350477D01*
X107790477Y-96230890D01*
X107880456Y-96087690D01*
X107936092Y-95928690D01*
X107965450Y-95881967D01*
X111746749Y-92100669D01*
X111808070Y-92067186D01*
X111877762Y-92072170D01*
X111933695Y-92114042D01*
X111957648Y-92174467D01*
X111963686Y-92228056D01*
X111963686Y-92228058D01*
X111963687Y-92228059D01*
X112019544Y-92387690D01*
X112109523Y-92530890D01*
X112229110Y-92650477D01*
X112372310Y-92740456D01*
X112531941Y-92796313D01*
X112633064Y-92807707D01*
X112699999Y-92815249D01*
X112699999Y-92815248D01*
X112700000Y-92815249D01*
X112868059Y-92796313D01*
X113027690Y-92740456D01*
X113081721Y-92706505D01*
X113147693Y-92687500D01*
X116877038Y-92687500D01*
X116944077Y-92707185D01*
X116989832Y-92759989D01*
X116999776Y-92829147D01*
X116972897Y-92888002D01*
X116973138Y-92888182D01*
X116972311Y-92889286D01*
X116970751Y-92892703D01*
X116967459Y-92895767D01*
X116876204Y-93017668D01*
X116825909Y-93152516D01*
X116821857Y-93190208D01*
X116819500Y-93212127D01*
X116819500Y-93215449D01*
X116819500Y-94045618D01*
X116819028Y-94056426D01*
X116814340Y-94109999D01*
X116819028Y-94163573D01*
X116819500Y-94174381D01*
X116819500Y-96804560D01*
X116819500Y-96804578D01*
X116819501Y-96807872D01*
X116825909Y-96867483D01*
X116876204Y-97002331D01*
X116962454Y-97117546D01*
X117077669Y-97203796D01*
X117212517Y-97254091D01*
X117272127Y-97260500D01*
X119067872Y-97260499D01*
X119127483Y-97254091D01*
X119262331Y-97203796D01*
X119365689Y-97126421D01*
X119431154Y-97102005D01*
X119499427Y-97116857D01*
X119514309Y-97126421D01*
X119617669Y-97203796D01*
X119752517Y-97254091D01*
X119812127Y-97260500D01*
X121607872Y-97260499D01*
X121667483Y-97254091D01*
X121802331Y-97203796D01*
X121905689Y-97126421D01*
X121971154Y-97102005D01*
X122039427Y-97116857D01*
X122054309Y-97126421D01*
X122157669Y-97203796D01*
X122292517Y-97254091D01*
X122352127Y-97260500D01*
X124147872Y-97260499D01*
X124207483Y-97254091D01*
X124342331Y-97203796D01*
X124445689Y-97126421D01*
X124511154Y-97102005D01*
X124579427Y-97116857D01*
X124594309Y-97126421D01*
X124697669Y-97203796D01*
X124832517Y-97254091D01*
X124892127Y-97260500D01*
X126687872Y-97260499D01*
X126747483Y-97254091D01*
X126882331Y-97203796D01*
X126985689Y-97126421D01*
X127051154Y-97102005D01*
X127119427Y-97116857D01*
X127134309Y-97126421D01*
X127237669Y-97203796D01*
X127372517Y-97254091D01*
X127432127Y-97260500D01*
X129227872Y-97260499D01*
X129287483Y-97254091D01*
X129422331Y-97203796D01*
X129525689Y-97126421D01*
X129591154Y-97102005D01*
X129659427Y-97116857D01*
X129674309Y-97126421D01*
X129777669Y-97203796D01*
X129912517Y-97254091D01*
X129972127Y-97260500D01*
X130118500Y-97260499D01*
X130185539Y-97280183D01*
X130231294Y-97332987D01*
X130242500Y-97384499D01*
X130242500Y-101708500D01*
X130222815Y-101775539D01*
X130170011Y-101821294D01*
X130118500Y-101832500D01*
X129653800Y-101832500D01*
X129586761Y-101812815D01*
X129541006Y-101760011D01*
X129529800Y-101708500D01*
X129529800Y-101666139D01*
X129529800Y-101662828D01*
X129523392Y-101603217D01*
X129473097Y-101468369D01*
X129386847Y-101353154D01*
X129271632Y-101266904D01*
X129136784Y-101216609D01*
X129077174Y-101210200D01*
X129073851Y-101210200D01*
X127486140Y-101210200D01*
X127486121Y-101210200D01*
X127482829Y-101210201D01*
X127479549Y-101210553D01*
X127479541Y-101210554D01*
X127423216Y-101216609D01*
X127288370Y-101266904D01*
X127173155Y-101353154D01*
X127086905Y-101468368D01*
X127036611Y-101603215D01*
X127036610Y-101603217D01*
X127030201Y-101662827D01*
X127030201Y-101666148D01*
X127030201Y-101666149D01*
X127030201Y-103253860D01*
X127030201Y-103253878D01*
X127030202Y-103257172D01*
X127030554Y-103260452D01*
X127030555Y-103260459D01*
X127031197Y-103266428D01*
X127036610Y-103316783D01*
X127086905Y-103451631D01*
X127173155Y-103566846D01*
X127288370Y-103653096D01*
X127423218Y-103703391D01*
X127482828Y-103709800D01*
X129077173Y-103709799D01*
X129136784Y-103703391D01*
X129271632Y-103653096D01*
X129386847Y-103566846D01*
X129473097Y-103451631D01*
X129523392Y-103316783D01*
X129529801Y-103257173D01*
X129529801Y-103211500D01*
X129549486Y-103144461D01*
X129602290Y-103098706D01*
X129653801Y-103087500D01*
X130800728Y-103087500D01*
X130820859Y-103087500D01*
X130840255Y-103089026D01*
X130860133Y-103092175D01*
X130899928Y-103088413D01*
X130903770Y-103088050D01*
X130915439Y-103087500D01*
X133629109Y-103087500D01*
X133696148Y-103107185D01*
X133730681Y-103140373D01*
X133818944Y-103266425D01*
X133973578Y-103421059D01*
X134152716Y-103546493D01*
X134350913Y-103638914D01*
X134562149Y-103695514D01*
X134780003Y-103714574D01*
X134997857Y-103695514D01*
X135209093Y-103638914D01*
X135407290Y-103546493D01*
X135586428Y-103421059D01*
X135741062Y-103266425D01*
X135866496Y-103087287D01*
X135958917Y-102889090D01*
X136015517Y-102677854D01*
X136034577Y-102460000D01*
X136015517Y-102242146D01*
X135958917Y-102030910D01*
X135866496Y-101832713D01*
X135741062Y-101653575D01*
X135586428Y-101498941D01*
X135407290Y-101373507D01*
X135315907Y-101330894D01*
X135209094Y-101281086D01*
X134997854Y-101224485D01*
X134780002Y-101205425D01*
X134562151Y-101224485D01*
X134350911Y-101281086D01*
X134152718Y-101373506D01*
X134152716Y-101373507D01*
X133973578Y-101498941D01*
X133973574Y-101498944D01*
X133818947Y-101653571D01*
X133818944Y-101653574D01*
X133818944Y-101653575D01*
X133730682Y-101779625D01*
X133676107Y-101823249D01*
X133629109Y-101832500D01*
X131621500Y-101832500D01*
X131554461Y-101812815D01*
X131508706Y-101760011D01*
X131497500Y-101708500D01*
X131497500Y-97384499D01*
X131517185Y-97317460D01*
X131569989Y-97271705D01*
X131621500Y-97260499D01*
X131764561Y-97260499D01*
X131767872Y-97260499D01*
X131827483Y-97254091D01*
X131962331Y-97203796D01*
X132065689Y-97126421D01*
X132131154Y-97102005D01*
X132199427Y-97116857D01*
X132214309Y-97126421D01*
X132317669Y-97203796D01*
X132452517Y-97254091D01*
X132512127Y-97260500D01*
X134307872Y-97260499D01*
X134367483Y-97254091D01*
X134502331Y-97203796D01*
X134605689Y-97126421D01*
X134671154Y-97102005D01*
X134739427Y-97116857D01*
X134754309Y-97126421D01*
X134857669Y-97203796D01*
X134992517Y-97254091D01*
X135052127Y-97260500D01*
X136847872Y-97260499D01*
X136907483Y-97254091D01*
X137042331Y-97203796D01*
X137145689Y-97126421D01*
X137211154Y-97102005D01*
X137279427Y-97116857D01*
X137294309Y-97126421D01*
X137397669Y-97203796D01*
X137532517Y-97254091D01*
X137592127Y-97260500D01*
X139387872Y-97260499D01*
X139447483Y-97254091D01*
X139582331Y-97203796D01*
X139685689Y-97126421D01*
X139751154Y-97102005D01*
X139819427Y-97116857D01*
X139834309Y-97126421D01*
X139937669Y-97203796D01*
X140072517Y-97254091D01*
X140132127Y-97260500D01*
X140791718Y-97260499D01*
X140858757Y-97280183D01*
X140879399Y-97296818D01*
X145593881Y-102011300D01*
X145627366Y-102072623D01*
X145630200Y-102098981D01*
X145630200Y-103253860D01*
X145630200Y-103253878D01*
X145630201Y-103257172D01*
X145630553Y-103260452D01*
X145630554Y-103260459D01*
X145631196Y-103266428D01*
X145636609Y-103316783D01*
X145686904Y-103451631D01*
X145773154Y-103566846D01*
X145888369Y-103653096D01*
X146023217Y-103703391D01*
X146082827Y-103709800D01*
X147677172Y-103709799D01*
X147736783Y-103703391D01*
X147871631Y-103653096D01*
X147986846Y-103566846D01*
X148073096Y-103451631D01*
X148123391Y-103316783D01*
X148129800Y-103257173D01*
X148129800Y-103211500D01*
X148149485Y-103144461D01*
X148202289Y-103098706D01*
X148253800Y-103087500D01*
X152229108Y-103087500D01*
X152296147Y-103107185D01*
X152330680Y-103140373D01*
X152418943Y-103266425D01*
X152573577Y-103421059D01*
X152752715Y-103546493D01*
X152950912Y-103638914D01*
X153162148Y-103695514D01*
X153380002Y-103714574D01*
X153597856Y-103695514D01*
X153809092Y-103638914D01*
X154007289Y-103546493D01*
X154186427Y-103421059D01*
X154341061Y-103266425D01*
X154466495Y-103087287D01*
X154558916Y-102889090D01*
X154615516Y-102677854D01*
X154634576Y-102460000D01*
X154615516Y-102242146D01*
X154558916Y-102030910D01*
X154466495Y-101832713D01*
X154341061Y-101653575D01*
X154186427Y-101498941D01*
X154007289Y-101373507D01*
X153915906Y-101330894D01*
X153809093Y-101281086D01*
X153597853Y-101224485D01*
X153380002Y-101205425D01*
X153162150Y-101224485D01*
X152950910Y-101281086D01*
X152752717Y-101373506D01*
X152752715Y-101373507D01*
X152573577Y-101498941D01*
X152573573Y-101498944D01*
X152418946Y-101653571D01*
X152418943Y-101653574D01*
X152418943Y-101653575D01*
X152330681Y-101779625D01*
X152276106Y-101823249D01*
X152229108Y-101832500D01*
X148253799Y-101832500D01*
X148186760Y-101812815D01*
X148141005Y-101760011D01*
X148129799Y-101708500D01*
X148129799Y-101666139D01*
X148129799Y-101666138D01*
X148129799Y-101662828D01*
X148123391Y-101603217D01*
X148073096Y-101468369D01*
X147986846Y-101353154D01*
X147871631Y-101266904D01*
X147736783Y-101216609D01*
X147677173Y-101210200D01*
X147673851Y-101210200D01*
X146618981Y-101210200D01*
X146551942Y-101190515D01*
X146531300Y-101173881D01*
X142829599Y-97472180D01*
X142796114Y-97410857D01*
X142801098Y-97341165D01*
X142842970Y-97285232D01*
X142908434Y-97260815D01*
X142917255Y-97260499D01*
X144467872Y-97260499D01*
X144527483Y-97254091D01*
X144662331Y-97203796D01*
X144765689Y-97126421D01*
X144831154Y-97102005D01*
X144899427Y-97116857D01*
X144914309Y-97126421D01*
X145017669Y-97203796D01*
X145152517Y-97254091D01*
X145212127Y-97260500D01*
X147007872Y-97260499D01*
X147067483Y-97254091D01*
X147202331Y-97203796D01*
X147305691Y-97126420D01*
X147371151Y-97102004D01*
X147439425Y-97116855D01*
X147454306Y-97126418D01*
X147557669Y-97203796D01*
X147692517Y-97254091D01*
X147752127Y-97260500D01*
X149547872Y-97260499D01*
X149607483Y-97254091D01*
X149742331Y-97203796D01*
X149845689Y-97126421D01*
X149911154Y-97102005D01*
X149979427Y-97116857D01*
X149994309Y-97126421D01*
X150097669Y-97203796D01*
X150232517Y-97254091D01*
X150292127Y-97260500D01*
X152087872Y-97260499D01*
X152147483Y-97254091D01*
X152282331Y-97203796D01*
X152385689Y-97126421D01*
X152451154Y-97102005D01*
X152519427Y-97116857D01*
X152534309Y-97126421D01*
X152637669Y-97203796D01*
X152772517Y-97254091D01*
X152832127Y-97260500D01*
X154627872Y-97260499D01*
X154687483Y-97254091D01*
X154822331Y-97203796D01*
X154925689Y-97126421D01*
X154991154Y-97102005D01*
X155059427Y-97116857D01*
X155074309Y-97126421D01*
X155177669Y-97203796D01*
X155312517Y-97254091D01*
X155372127Y-97260500D01*
X157167872Y-97260499D01*
X157227483Y-97254091D01*
X157362331Y-97203796D01*
X157465689Y-97126421D01*
X157531154Y-97102005D01*
X157599427Y-97116857D01*
X157614309Y-97126421D01*
X157717669Y-97203796D01*
X157852517Y-97254091D01*
X157912127Y-97260500D01*
X159707872Y-97260499D01*
X159767483Y-97254091D01*
X159902331Y-97203796D01*
X160005689Y-97126421D01*
X160071154Y-97102005D01*
X160139427Y-97116857D01*
X160154309Y-97126421D01*
X160257669Y-97203796D01*
X160392517Y-97254091D01*
X160452127Y-97260500D01*
X162247872Y-97260499D01*
X162307483Y-97254091D01*
X162442331Y-97203796D01*
X162546107Y-97126108D01*
X162611569Y-97101692D01*
X162679842Y-97116543D01*
X162694727Y-97126109D01*
X162797911Y-97203352D01*
X162932628Y-97253599D01*
X162988867Y-97259645D01*
X162995482Y-97260000D01*
X163640000Y-97260000D01*
X163640000Y-94556494D01*
X163744839Y-94604373D01*
X163853527Y-94620000D01*
X163926473Y-94620000D01*
X164035161Y-94604373D01*
X164140000Y-94556494D01*
X164140000Y-97260000D01*
X164784518Y-97260000D01*
X164791132Y-97259645D01*
X164847371Y-97253599D01*
X164982089Y-97203352D01*
X165085270Y-97126110D01*
X165150734Y-97101692D01*
X165219008Y-97116543D01*
X165233890Y-97126107D01*
X165337669Y-97203796D01*
X165472517Y-97254091D01*
X165532127Y-97260500D01*
X167327872Y-97260499D01*
X167387483Y-97254091D01*
X167522331Y-97203796D01*
X167556191Y-97178448D01*
X167621653Y-97154032D01*
X167689926Y-97168883D01*
X167739332Y-97218288D01*
X167754500Y-97277716D01*
X167754500Y-106846249D01*
X167754274Y-106853736D01*
X167736983Y-107139576D01*
X167735178Y-107154441D01*
X167684236Y-107432421D01*
X167680652Y-107446959D01*
X167596577Y-107716769D01*
X167591270Y-107730762D01*
X167475285Y-107988468D01*
X167468327Y-108001726D01*
X167322124Y-108243577D01*
X167313618Y-108255900D01*
X167139328Y-108478364D01*
X167129398Y-108489572D01*
X166929572Y-108689398D01*
X166918364Y-108699328D01*
X166695900Y-108873618D01*
X166683577Y-108882124D01*
X166441726Y-109028327D01*
X166428468Y-109035285D01*
X166170762Y-109151270D01*
X166156769Y-109156577D01*
X165888785Y-109240083D01*
X165886959Y-109240653D01*
X165872421Y-109244236D01*
X165594441Y-109295178D01*
X165579576Y-109296983D01*
X165293736Y-109314274D01*
X165286249Y-109314500D01*
X94173751Y-109314500D01*
X94166264Y-109314274D01*
X93880423Y-109296983D01*
X93865558Y-109295178D01*
X93587578Y-109244236D01*
X93573044Y-109240654D01*
X93303225Y-109156575D01*
X93289237Y-109151270D01*
X93031531Y-109035285D01*
X93018273Y-109028327D01*
X92776422Y-108882124D01*
X92764099Y-108873618D01*
X92541635Y-108699328D01*
X92530427Y-108689398D01*
X92330601Y-108489572D01*
X92320671Y-108478364D01*
X92146381Y-108255900D01*
X92137879Y-108243584D01*
X91991668Y-108001718D01*
X91984718Y-107988476D01*
X91868725Y-107730754D01*
X91863427Y-107716784D01*
X91779342Y-107446943D01*
X91775763Y-107432421D01*
X91724821Y-107154441D01*
X91723016Y-107139576D01*
X91712154Y-106960001D01*
X127025426Y-106960001D01*
X127044486Y-107177852D01*
X127044487Y-107177855D01*
X127101087Y-107389091D01*
X127193508Y-107587288D01*
X127318942Y-107766426D01*
X127473576Y-107921060D01*
X127652714Y-108046494D01*
X127850911Y-108138915D01*
X128062147Y-108195515D01*
X128280001Y-108214575D01*
X128497855Y-108195515D01*
X128709091Y-108138915D01*
X128907288Y-108046494D01*
X129086426Y-107921060D01*
X129241060Y-107766426D01*
X129366494Y-107587288D01*
X129458915Y-107389091D01*
X129515515Y-107177855D01*
X129534575Y-106960001D01*
X133525428Y-106960001D01*
X133544488Y-107177852D01*
X133544489Y-107177855D01*
X133601089Y-107389091D01*
X133693510Y-107587288D01*
X133818944Y-107766426D01*
X133973578Y-107921060D01*
X134152716Y-108046494D01*
X134350913Y-108138915D01*
X134562149Y-108195515D01*
X134780003Y-108214575D01*
X134997857Y-108195515D01*
X135209093Y-108138915D01*
X135407290Y-108046494D01*
X135586428Y-107921060D01*
X135741062Y-107766426D01*
X135866496Y-107587288D01*
X135958917Y-107389091D01*
X136015517Y-107177855D01*
X136034577Y-106960001D01*
X136034577Y-106960000D01*
X145625425Y-106960000D01*
X145644485Y-107177852D01*
X145644486Y-107177855D01*
X145701086Y-107389091D01*
X145793507Y-107587288D01*
X145918941Y-107766426D01*
X146073575Y-107921060D01*
X146252713Y-108046494D01*
X146450910Y-108138915D01*
X146662146Y-108195515D01*
X146880000Y-108214575D01*
X147097854Y-108195515D01*
X147309090Y-108138915D01*
X147507287Y-108046494D01*
X147686425Y-107921060D01*
X147841059Y-107766426D01*
X147966493Y-107587288D01*
X148058914Y-107389091D01*
X148115514Y-107177855D01*
X148134574Y-106960001D01*
X152125427Y-106960001D01*
X152144487Y-107177852D01*
X152144488Y-107177855D01*
X152201088Y-107389091D01*
X152293509Y-107587288D01*
X152418943Y-107766426D01*
X152573577Y-107921060D01*
X152752715Y-108046494D01*
X152950912Y-108138915D01*
X153162148Y-108195515D01*
X153380002Y-108214575D01*
X153597856Y-108195515D01*
X153809092Y-108138915D01*
X154007289Y-108046494D01*
X154186427Y-107921060D01*
X154341061Y-107766426D01*
X154466495Y-107587288D01*
X154558916Y-107389091D01*
X154615516Y-107177855D01*
X154634576Y-106960001D01*
X154615516Y-106742147D01*
X154558916Y-106530911D01*
X154466495Y-106332714D01*
X154341061Y-106153576D01*
X154186427Y-105998942D01*
X154007289Y-105873508D01*
X153915906Y-105830895D01*
X153809093Y-105781087D01*
X153597853Y-105724486D01*
X153380002Y-105705426D01*
X153162150Y-105724486D01*
X152950910Y-105781087D01*
X152752717Y-105873507D01*
X152752715Y-105873508D01*
X152573577Y-105998942D01*
X152573573Y-105998945D01*
X152418946Y-106153572D01*
X152293508Y-106332716D01*
X152201088Y-106530909D01*
X152144487Y-106742149D01*
X152125427Y-106960001D01*
X148134574Y-106960001D01*
X148115514Y-106742147D01*
X148058914Y-106530911D01*
X147966493Y-106332714D01*
X147841059Y-106153576D01*
X147686425Y-105998942D01*
X147507287Y-105873508D01*
X147415904Y-105830895D01*
X147309091Y-105781087D01*
X147097851Y-105724486D01*
X146880000Y-105705426D01*
X146662148Y-105724486D01*
X146450908Y-105781087D01*
X146252715Y-105873507D01*
X146252713Y-105873508D01*
X146073575Y-105998942D01*
X146073571Y-105998945D01*
X145918944Y-106153572D01*
X145793506Y-106332716D01*
X145701086Y-106530909D01*
X145644485Y-106742149D01*
X145625425Y-106960000D01*
X136034577Y-106960000D01*
X136015517Y-106742147D01*
X135958917Y-106530911D01*
X135866496Y-106332714D01*
X135741062Y-106153576D01*
X135586428Y-105998942D01*
X135407290Y-105873508D01*
X135315907Y-105830895D01*
X135209094Y-105781087D01*
X134997854Y-105724486D01*
X134780002Y-105705426D01*
X134562151Y-105724486D01*
X134350911Y-105781087D01*
X134152718Y-105873507D01*
X134152716Y-105873508D01*
X133973578Y-105998942D01*
X133973574Y-105998945D01*
X133818947Y-106153572D01*
X133693509Y-106332716D01*
X133601089Y-106530909D01*
X133544488Y-106742149D01*
X133525428Y-106960001D01*
X129534575Y-106960001D01*
X129515515Y-106742147D01*
X129458915Y-106530911D01*
X129366494Y-106332714D01*
X129241060Y-106153576D01*
X129086426Y-105998942D01*
X128907288Y-105873508D01*
X128815905Y-105830895D01*
X128709092Y-105781087D01*
X128497852Y-105724486D01*
X128280000Y-105705426D01*
X128062149Y-105724486D01*
X127850909Y-105781087D01*
X127652716Y-105873507D01*
X127652714Y-105873508D01*
X127473576Y-105998942D01*
X127473572Y-105998945D01*
X127318945Y-106153572D01*
X127193507Y-106332716D01*
X127101087Y-106530909D01*
X127044486Y-106742149D01*
X127025426Y-106960001D01*
X91712154Y-106960001D01*
X91705724Y-106853703D01*
X91705500Y-106846276D01*
X91705500Y-106825469D01*
X91705500Y-81060000D01*
X109330001Y-81060000D01*
X109330001Y-81156829D01*
X109330321Y-81163111D01*
X109340493Y-81262695D01*
X109395642Y-81429122D01*
X109487683Y-81578345D01*
X109611654Y-81702316D01*
X109760877Y-81794357D01*
X109927303Y-81849506D01*
X110026890Y-81859680D01*
X110033168Y-81859999D01*
X110130000Y-81859998D01*
X110130000Y-81060000D01*
X110630000Y-81060000D01*
X110630000Y-81859999D01*
X110726829Y-81859999D01*
X110733111Y-81859678D01*
X110832695Y-81849506D01*
X110999122Y-81794357D01*
X111148345Y-81702316D01*
X111272316Y-81578345D01*
X111364357Y-81429122D01*
X111419506Y-81262696D01*
X111429680Y-81163109D01*
X111430000Y-81156831D01*
X111430000Y-81060000D01*
X110630000Y-81060000D01*
X110130000Y-81060000D01*
X109330001Y-81060000D01*
X91705500Y-81060000D01*
X91705500Y-80174499D01*
X91725185Y-80107461D01*
X91777989Y-80061706D01*
X91829500Y-80050500D01*
X109270439Y-80050500D01*
X109337478Y-80070185D01*
X109383233Y-80122989D01*
X109393177Y-80192147D01*
X109388145Y-80213504D01*
X109340493Y-80357303D01*
X109330319Y-80456890D01*
X109330000Y-80463168D01*
X109330000Y-80560000D01*
X111429999Y-80560000D01*
X111429999Y-80463170D01*
X111429678Y-80456888D01*
X111419506Y-80357304D01*
X111371855Y-80213504D01*
X111369453Y-80143676D01*
X111405185Y-80083634D01*
X111467705Y-80052441D01*
X111489561Y-80050500D01*
X114362676Y-80050500D01*
X114366000Y-80050500D01*
X114473456Y-80038947D01*
X114524967Y-80027741D01*
X114554165Y-80018022D01*
X114627503Y-79993614D01*
X114748541Y-79915826D01*
X114748543Y-79915825D01*
X114801347Y-79870070D01*
X114895567Y-79761336D01*
X114955338Y-79630459D01*
X114975023Y-79563420D01*
X114975024Y-79563416D01*
X114995500Y-79421000D01*
X114995500Y-70424499D01*
X115015185Y-70357461D01*
X115067989Y-70311706D01*
X115119500Y-70300500D01*
X144842676Y-70300500D01*
X144846000Y-70300500D01*
X144953456Y-70288947D01*
X145004967Y-70277741D01*
X145034165Y-70268022D01*
X145107503Y-70243614D01*
X145228541Y-70165826D01*
X145228543Y-70165825D01*
X145281347Y-70120070D01*
X145375567Y-70011336D01*
X145435338Y-69880459D01*
X145455023Y-69813420D01*
X145455024Y-69813416D01*
X145475500Y-69671000D01*
X145475500Y-53709500D01*
X145495185Y-53642461D01*
X145547989Y-53596706D01*
X145599500Y-53585500D01*
X165265469Y-53585500D01*
X165286249Y-53585500D01*
X165293736Y-53585726D01*
G37*
%TD.AperFunction*%
%TD*%
%TA.AperFunction,Conductor*%
%TO.N,/V9P0_SW*%
G36*
X144913039Y-53605185D02*
G01*
X144958794Y-53657989D01*
X144970000Y-53709500D01*
X144970000Y-69671000D01*
X144950315Y-69738039D01*
X144897511Y-69783794D01*
X144846000Y-69795000D01*
X115119500Y-69795000D01*
X115052461Y-69775315D01*
X115006706Y-69722511D01*
X114995500Y-69671000D01*
X114995500Y-68474578D01*
X125504500Y-68474578D01*
X125504501Y-68477872D01*
X125504853Y-68481152D01*
X125504854Y-68481159D01*
X125510909Y-68537484D01*
X125520991Y-68564515D01*
X125561204Y-68672331D01*
X125647454Y-68787546D01*
X125762669Y-68873796D01*
X125897517Y-68924091D01*
X125957127Y-68930500D01*
X128652872Y-68930499D01*
X128712483Y-68924091D01*
X128847331Y-68873796D01*
X128962546Y-68787546D01*
X129042914Y-68680188D01*
X129098847Y-68638318D01*
X129142180Y-68630500D01*
X131249135Y-68630500D01*
X131264473Y-68631452D01*
X131287779Y-68634357D01*
X131287779Y-68634356D01*
X131287780Y-68634357D01*
X131358017Y-68631452D01*
X131378473Y-68630605D01*
X131383596Y-68630500D01*
X131409498Y-68630500D01*
X131412067Y-68630500D01*
X131440447Y-68628147D01*
X131445540Y-68627831D01*
X131536237Y-68624081D01*
X131559209Y-68619263D01*
X131574413Y-68617047D01*
X131597821Y-68615108D01*
X131685838Y-68592818D01*
X131690754Y-68591680D01*
X131779614Y-68573049D01*
X131801496Y-68564510D01*
X131816116Y-68559827D01*
X131838881Y-68554063D01*
X131922008Y-68517599D01*
X131926699Y-68515656D01*
X132011274Y-68482656D01*
X132031456Y-68470628D01*
X132045101Y-68463605D01*
X132066607Y-68454173D01*
X132142593Y-68404528D01*
X132146916Y-68401830D01*
X132224894Y-68355366D01*
X132242813Y-68340188D01*
X132255126Y-68331006D01*
X132274785Y-68318164D01*
X132336681Y-68261184D01*
X132341551Y-68256701D01*
X132345383Y-68253315D01*
X132367126Y-68234902D01*
X132387313Y-68214714D01*
X132390939Y-68211235D01*
X132457738Y-68149744D01*
X132472167Y-68131203D01*
X132482325Y-68119701D01*
X133039408Y-67562618D01*
X139605900Y-67562618D01*
X139606254Y-67569232D01*
X139612300Y-67625471D01*
X139662547Y-67760189D01*
X139748711Y-67875288D01*
X139863810Y-67961452D01*
X139998528Y-68011699D01*
X140054767Y-68017745D01*
X140061382Y-68018100D01*
X140910000Y-68018100D01*
X140910000Y-67224190D01*
X140980834Y-67248976D01*
X141115064Y-67264100D01*
X141204936Y-67264100D01*
X141339166Y-67248976D01*
X141410000Y-67224190D01*
X141410000Y-68018100D01*
X142258618Y-68018100D01*
X142265232Y-68017745D01*
X142321471Y-68011699D01*
X142456189Y-67961452D01*
X142571288Y-67875288D01*
X142657452Y-67760189D01*
X142707699Y-67625471D01*
X142713745Y-67569232D01*
X142714100Y-67562618D01*
X142714100Y-66714000D01*
X141920190Y-66714000D01*
X141944976Y-66643166D01*
X141965163Y-66464000D01*
X141944976Y-66284834D01*
X141920190Y-66214000D01*
X142714100Y-66214000D01*
X142714100Y-65365381D01*
X142713745Y-65358767D01*
X142707699Y-65302528D01*
X142657452Y-65167810D01*
X142571288Y-65052711D01*
X142456189Y-64966547D01*
X142321471Y-64916300D01*
X142265232Y-64910254D01*
X142258618Y-64909900D01*
X141410000Y-64909900D01*
X141410000Y-65703809D01*
X141339166Y-65679024D01*
X141204936Y-65663900D01*
X141115064Y-65663900D01*
X140980834Y-65679024D01*
X140910000Y-65703809D01*
X140910000Y-64909900D01*
X140061382Y-64909900D01*
X140054767Y-64910254D01*
X139998528Y-64916300D01*
X139863810Y-64966547D01*
X139748711Y-65052711D01*
X139662547Y-65167810D01*
X139612300Y-65302528D01*
X139606254Y-65358767D01*
X139605900Y-65365381D01*
X139605900Y-66214000D01*
X140399810Y-66214000D01*
X140375024Y-66284834D01*
X140354837Y-66464000D01*
X140375024Y-66643166D01*
X140399810Y-66714000D01*
X139605900Y-66714000D01*
X139605900Y-67562618D01*
X133039408Y-67562618D01*
X137300208Y-63301819D01*
X137361532Y-63268334D01*
X137387890Y-63265500D01*
X140735983Y-63265500D01*
X140764930Y-63268926D01*
X140916055Y-63305208D01*
X141160000Y-63324407D01*
X141403945Y-63305208D01*
X141641883Y-63248084D01*
X141867956Y-63154442D01*
X142076596Y-63026587D01*
X142262667Y-62867667D01*
X142421587Y-62681596D01*
X142549442Y-62472956D01*
X142643084Y-62246883D01*
X142700208Y-62008945D01*
X142719407Y-61765000D01*
X142700208Y-61521055D01*
X142643084Y-61283117D01*
X142549442Y-61057044D01*
X142421587Y-60848404D01*
X142262667Y-60662333D01*
X142076596Y-60503413D01*
X141867956Y-60375558D01*
X141759147Y-60330488D01*
X141641883Y-60281915D01*
X141403946Y-60224792D01*
X141281972Y-60215192D01*
X141160000Y-60205593D01*
X141159999Y-60205593D01*
X140916053Y-60224792D01*
X140764930Y-60261074D01*
X140735983Y-60264500D01*
X136815865Y-60264500D01*
X136800527Y-60263548D01*
X136777219Y-60260642D01*
X136690160Y-60264243D01*
X136686526Y-60264394D01*
X136681404Y-60264500D01*
X136652933Y-60264500D01*
X136650406Y-60264709D01*
X136650390Y-60264710D01*
X136624551Y-60266851D01*
X136619440Y-60267168D01*
X136528762Y-60270919D01*
X136528763Y-60270919D01*
X136505776Y-60275738D01*
X136490579Y-60277952D01*
X136467180Y-60279891D01*
X136379215Y-60302166D01*
X136374225Y-60303320D01*
X136285385Y-60321949D01*
X136263501Y-60330488D01*
X136248874Y-60335174D01*
X136226116Y-60340937D01*
X136143023Y-60377385D01*
X136138291Y-60379346D01*
X136053723Y-60412345D01*
X136033547Y-60424367D01*
X136019895Y-60431394D01*
X135998396Y-60440825D01*
X135922410Y-60490468D01*
X135918065Y-60493180D01*
X135840104Y-60539635D01*
X135822183Y-60554813D01*
X135809868Y-60563995D01*
X135790215Y-60576835D01*
X135723447Y-60638299D01*
X135719613Y-60641685D01*
X135697874Y-60660098D01*
X135696059Y-60661911D01*
X135696061Y-60661911D01*
X135677738Y-60680233D01*
X135674045Y-60683775D01*
X135607262Y-60745254D01*
X135592832Y-60763793D01*
X135582664Y-60775306D01*
X130764791Y-65593181D01*
X130703468Y-65626666D01*
X130677110Y-65629500D01*
X129142180Y-65629500D01*
X129075141Y-65609815D01*
X129042913Y-65579811D01*
X128962546Y-65472454D01*
X128847331Y-65386204D01*
X128712483Y-65335909D01*
X128656166Y-65329854D01*
X128656165Y-65329853D01*
X128652873Y-65329500D01*
X128649550Y-65329500D01*
X125960439Y-65329500D01*
X125960420Y-65329500D01*
X125957128Y-65329501D01*
X125953848Y-65329853D01*
X125953840Y-65329854D01*
X125897515Y-65335909D01*
X125762669Y-65386204D01*
X125647454Y-65472454D01*
X125561204Y-65587668D01*
X125527131Y-65679024D01*
X125510909Y-65722517D01*
X125504500Y-65782127D01*
X125504500Y-65785448D01*
X125504500Y-65785449D01*
X125504500Y-68474560D01*
X125504500Y-68474578D01*
X114995500Y-68474578D01*
X114995500Y-64130000D01*
X120799450Y-64130000D01*
X120819616Y-64399100D01*
X120819617Y-64399103D01*
X120879666Y-64662195D01*
X120978257Y-64913398D01*
X121113185Y-65147102D01*
X121281439Y-65358085D01*
X121479259Y-65541635D01*
X121702226Y-65693651D01*
X121945359Y-65810738D01*
X122203228Y-65890280D01*
X122470071Y-65930500D01*
X122739929Y-65930500D01*
X123006772Y-65890280D01*
X123264641Y-65810738D01*
X123507775Y-65693651D01*
X123730741Y-65541635D01*
X123928561Y-65358085D01*
X124096815Y-65147102D01*
X124231743Y-64913398D01*
X124330334Y-64662195D01*
X124390383Y-64399103D01*
X124410549Y-64130000D01*
X124390383Y-63860897D01*
X124330334Y-63597805D01*
X124231743Y-63346602D01*
X124096815Y-63112898D01*
X123928561Y-62901915D01*
X123928560Y-62901914D01*
X123730743Y-62718366D01*
X123632344Y-62651279D01*
X123507775Y-62566349D01*
X123264641Y-62449262D01*
X123185098Y-62424726D01*
X123006771Y-62369719D01*
X122739929Y-62329500D01*
X122470071Y-62329500D01*
X122203228Y-62369719D01*
X121945359Y-62449262D01*
X121702228Y-62566347D01*
X121479257Y-62718366D01*
X121281439Y-62901915D01*
X121113184Y-63112899D01*
X120978257Y-63346601D01*
X120879666Y-63597804D01*
X120819616Y-63860899D01*
X120799450Y-64130000D01*
X114995500Y-64130000D01*
X114995500Y-63369459D01*
X115015185Y-63302420D01*
X115067989Y-63256665D01*
X115119500Y-63245459D01*
X116197361Y-63245459D01*
X116200672Y-63245459D01*
X116260283Y-63239051D01*
X116395131Y-63188756D01*
X116510346Y-63102506D01*
X116596596Y-62987291D01*
X116627618Y-62904115D01*
X116669490Y-62848183D01*
X116734954Y-62823766D01*
X116803227Y-62838618D01*
X116852632Y-62888023D01*
X116867800Y-62947450D01*
X116867800Y-63119960D01*
X117002318Y-63119960D01*
X117008932Y-63119605D01*
X117065171Y-63113559D01*
X117199889Y-63063312D01*
X117314988Y-62977148D01*
X117401152Y-62862049D01*
X117451399Y-62727331D01*
X117457445Y-62671092D01*
X117457800Y-62664478D01*
X117457800Y-62619960D01*
X116867799Y-62619960D01*
X116864979Y-62622780D01*
X116803656Y-62656265D01*
X116733964Y-62651279D01*
X116678031Y-62609407D01*
X116653615Y-62543942D01*
X116653299Y-62535114D01*
X116653299Y-62294458D01*
X116672984Y-62227420D01*
X116725788Y-62181665D01*
X116777299Y-62170459D01*
X117002360Y-62170459D01*
X117005672Y-62170459D01*
X117008759Y-62170127D01*
X117014986Y-62169960D01*
X117457800Y-62169960D01*
X117457800Y-62125441D01*
X117457445Y-62118827D01*
X117451399Y-62062588D01*
X117414631Y-61964009D01*
X117409647Y-61894317D01*
X117414631Y-61877341D01*
X117451891Y-61777443D01*
X117458300Y-61717833D01*
X117458299Y-61172088D01*
X117453775Y-61130000D01*
X125499450Y-61130000D01*
X125519616Y-61399100D01*
X125519617Y-61399103D01*
X125579666Y-61662195D01*
X125678257Y-61913398D01*
X125813185Y-62147102D01*
X125981439Y-62358085D01*
X126179259Y-62541635D01*
X126402226Y-62693651D01*
X126645359Y-62810738D01*
X126903228Y-62890280D01*
X127170071Y-62930500D01*
X127439929Y-62930500D01*
X127706772Y-62890280D01*
X127964641Y-62810738D01*
X128207775Y-62693651D01*
X128430741Y-62541635D01*
X128628561Y-62358085D01*
X128796815Y-62147102D01*
X128931743Y-61913398D01*
X129030334Y-61662195D01*
X129090383Y-61399103D01*
X129110549Y-61130000D01*
X129090383Y-60860897D01*
X129030334Y-60597805D01*
X128931743Y-60346602D01*
X128796815Y-60112898D01*
X128628561Y-59901915D01*
X128628560Y-59901914D01*
X128430743Y-59718366D01*
X128373205Y-59679137D01*
X128207775Y-59566349D01*
X127964641Y-59449262D01*
X127885098Y-59424726D01*
X127706771Y-59369719D01*
X127439929Y-59329500D01*
X127170071Y-59329500D01*
X126903228Y-59369719D01*
X126645359Y-59449262D01*
X126402228Y-59566347D01*
X126179257Y-59718366D01*
X125981439Y-59901915D01*
X125813184Y-60112899D01*
X125678257Y-60346601D01*
X125579666Y-60597804D01*
X125519616Y-60860899D01*
X125499450Y-61130000D01*
X117453775Y-61130000D01*
X117451891Y-61112477D01*
X117414631Y-61012577D01*
X117409647Y-60942885D01*
X117414631Y-60925910D01*
X117451399Y-60827331D01*
X117457445Y-60771092D01*
X117457800Y-60764478D01*
X117457800Y-60719960D01*
X117014996Y-60719960D01*
X117008771Y-60719793D01*
X117005673Y-60719460D01*
X117002351Y-60719460D01*
X116777299Y-60719460D01*
X116710260Y-60699775D01*
X116664505Y-60646971D01*
X116653299Y-60595460D01*
X116653299Y-60354821D01*
X116672984Y-60287782D01*
X116725788Y-60242027D01*
X116794946Y-60232083D01*
X116858502Y-60261108D01*
X116864980Y-60267140D01*
X116867800Y-60269960D01*
X117457800Y-60269960D01*
X117457800Y-60225441D01*
X117457445Y-60218827D01*
X117451399Y-60162588D01*
X117401152Y-60027870D01*
X117314988Y-59912771D01*
X117199889Y-59826607D01*
X117065171Y-59776360D01*
X117008932Y-59770314D01*
X117002318Y-59769960D01*
X116867800Y-59769960D01*
X116867800Y-59942470D01*
X116848115Y-60009509D01*
X116795311Y-60055264D01*
X116726153Y-60065208D01*
X116662597Y-60036183D01*
X116627618Y-59985804D01*
X116596596Y-59902629D01*
X116510346Y-59787414D01*
X116395131Y-59701164D01*
X116260283Y-59650869D01*
X116200673Y-59644460D01*
X116197351Y-59644460D01*
X115119499Y-59644460D01*
X115052460Y-59624775D01*
X115006705Y-59571971D01*
X114995499Y-59520460D01*
X114995499Y-57066000D01*
X139600593Y-57066000D01*
X139619792Y-57309946D01*
X139676915Y-57547883D01*
X139735967Y-57690445D01*
X139770558Y-57773956D01*
X139898413Y-57982596D01*
X140057333Y-58168667D01*
X140243404Y-58327587D01*
X140452044Y-58455442D01*
X140619064Y-58524623D01*
X140678116Y-58549084D01*
X140753286Y-58567130D01*
X140916055Y-58606208D01*
X141160000Y-58625407D01*
X141403945Y-58606208D01*
X141641883Y-58549084D01*
X141867956Y-58455442D01*
X142076596Y-58327587D01*
X142262667Y-58168667D01*
X142421587Y-57982596D01*
X142549442Y-57773956D01*
X142643084Y-57547883D01*
X142700208Y-57309945D01*
X142719407Y-57066000D01*
X142700208Y-56822055D01*
X142643084Y-56584117D01*
X142549442Y-56358044D01*
X142421587Y-56149404D01*
X142262667Y-55963333D01*
X142076596Y-55804413D01*
X141867956Y-55676558D01*
X141784445Y-55641967D01*
X141641883Y-55582915D01*
X141403946Y-55525792D01*
X141160000Y-55506593D01*
X140916053Y-55525792D01*
X140678116Y-55582915D01*
X140452042Y-55676559D01*
X140243405Y-55804412D01*
X140057333Y-55963333D01*
X139898412Y-56149405D01*
X139770559Y-56358042D01*
X139676915Y-56584116D01*
X139619792Y-56822053D01*
X139600593Y-57066000D01*
X114995499Y-57066000D01*
X114995500Y-53709500D01*
X115015185Y-53642461D01*
X115067989Y-53596706D01*
X115119500Y-53585500D01*
X144846000Y-53585500D01*
X144913039Y-53605185D01*
G37*
%TD.AperFunction*%
%TD*%
M02*
